<?xml version="1.0" encoding="UTF-8"?><svg id="a" xmlns="http://www.w3.org/2000/svg" viewBox="0 0 102.72 10.75"><defs><style>.b{fill:#231f20;stroke-width:0px;}</style></defs><path class="b" d="M3.9.32c.06,0,.08.07.11.17.37,1.16.64,1.75,1.04,2.85.38,1.06,1.39,3.39,1.54,3.73.22.49.36.82,1.07.95.02.02-.02.22-.05.24-.72,0-1.06-.02-1.44-.02s-.73.05-.86.04c-.04,0-.05-.01-.06-.04-.02-.05-.04-.17-.04-.19.67-.19.73-.32.52-.9-.08-.22-.42-1.13-.61-1.61-.02-.08-.08-.19-.19-.19-.97,0-1.92.02-2.66.06-.13,0-.19.06-.26.19-.14.32-.59,1.51-.59,1.83,0,.25.1.36.72.58,0,.06-.04.18-.07.22-.52-.01-1.04-.02-1.28-.02s-.54.02-.64.02c-.07,0-.1-.01-.11-.02-.02-.06-.04-.19-.02-.23.49-.13.59-.28.96-1.02.34-.68,1.7-4.08,2.39-5.76.13-.34.19-.5.25-.7.01-.06.02-.07.06-.1.02-.01.17-.08.23-.08h.01ZM2.5,4.95c.06,0,.35.01.96.01s.97-.01,1.27-.02c.1,0,.12-.1.1-.16-.47-1.22-.7-1.9-1.15-3.01-.04-.1-.12-.07-.16.02-.59,1.37-.74,1.75-1.21,3.01-.02.06.04.14.18.14h.01Z"/><path class="b" d="M9.46,8.01c.18-.02.5-.07.68-.12.3-.06.47-.14.5-.43.04-.16.08-.96.08-2.75v-1.21c0-2.21,0-2.6-.05-2.63h-1.12c-1.16,0-1.49.17-1.58.23-.18.12-.34.43-.49.82-.02.05-.06.05-.1.02-.06-.04-.17-.14-.18-.17.16-.3.42-.89.6-1.74.04-.01.08,0,.16.02.05.01.07.02.07.07.02.23.05.31.13.34.1.04.24.05.53.06.41.01.86.01,1.92.01,1.27,0,2.36-.01,3.12-.05.38-.01.55-.04.68-.08.08-.02.18-.13.26-.34,0-.04.01-.04.05-.04s.13.05.19.1c.01.02,0,.07-.02.14-.23.64-.24.91-.3,1.57,0,.07-.02.1-.08.1-.04,0-.1-.01-.14-.02-.02-.01-.04-.05-.04-.1-.01-.16,0-.48-.02-.6-.01-.07-.05-.17-.17-.22-.12-.06-.62-.14-1.52-.14h-.86c-.14,0-.18.08-.19.31-.01.2-.06.84-.06,2.45v1.2c0,1.76.04,2.27.07,2.48.02.18.08.32.22.42.2.16.71.23,1.06.26.06.01.07.02.07.05l-.04.12s-.04.07-.14.07c-.17,0-1.08-.04-1.65-.04-.49,0-1.19.07-1.45.07-.12,0-.16-.04-.17-.1v-.16Z"/><path class="b" d="M18.17,4.13c.58,0,1.08-.01,1.49-.04.66-.04.76-.05.97-.72.05-.04.23-.02.24-.02-.01.31-.08.76-.08,1.1.01.38.06.76.07,1-.05.04-.11.05-.18.05-.02,0-.05-.02-.07-.08-.05-.14-.1-.3-.14-.46-.1-.29-.24-.41-.74-.44-.24-.02-.68-.02-1.32-.02s-.74.04-.8.05c-.04.01-.07.02-.1.07-.02.06-.12.46-.12,1.42s0,1.32.11,1.52c.16.23.41.31,1.58.31,1.6,0,2.15-.13,2.54-1.38.04-.01.08,0,.17.02.02.02.02.05.02.07-.01.47-.19,1.2-.35,1.56-.06.07-.1.1-.16.1-.1,0-.17,0-.56-.01-.37-.01-1.19-.02-2.06-.02s-1.74.05-2.76.1c-.02-.01-.04-.17-.02-.22.01-.04.04-.05.05-.05.53-.13.61-.24.62-.41.01-.17.07-.98.07-2.24v-1.81c0-1.66-.05-2.21-.07-2.45-.01-.12-.06-.18-.17-.22-.12-.07-.34-.11-.59-.16-.02-.01-.02-.02-.02-.05v-.17s.04-.04.13-.04h.38c.38,0,.78.04,1.44.04h1.14c.6,0,1.5-.06,2.05-.07.2,0,.25.02.3.07.08.06.08.07.05.24-.1.56-.11,1.15-.11,1.42-.19-.01-.24-.04-.25-.1-.13-.94-.22-1.25-1.22-1.25h-.95c-.7,0-1.08.04-1.2.07-.12.05-.14.12-.14.46,0,.86.01,1.71.01,2.58,0,.08.08.18.18.18h.58Z"/><path class="b" d="M28.15,6.47s.18.06.22.1c.02.05.02.07.01.12-.13.44-.26.85-.35,1.36-.02.12-.1.17-.19.18-.12.01-.25.01-.74.01-.42,0-1.08-.04-2.97-.04-.49,0-1,.05-1.26.07-.14.01-.22.01-.25.01-.02-.04-.07-.18-.07-.24.49-.07.8-.16.91-.55.04-.16.07-.61.07-1.86v-2.55c0-1.02-.02-1.66-.04-1.87-.02-.29-.11-.35-.86-.42-.05-.01-.06-.06-.04-.1l.05-.11s.04-.05.08-.05c.3,0,.58.01.92.01.44-.01,1-.05,1.6-.08.04.04.06.14.05.23-.72.11-.88.2-.92.65-.04.36-.07,1.18-.06,2.22v1.42c.01,1.95.02,2.3.05,2.53.01.13.06.24.23.29.18.07.62.1,1.14.1.92,0,1.62-.02,2.01-.54.18-.23.3-.54.37-.83.01-.04.01-.05.04-.05h.01Z"/><path class="b" d="M32.04.7c-.9.13-1.04.24-1.08.47-.05.2-.08.7-.08,2.15v2.19c0,.97.02,1.57.06,1.92.02.29.11.34.29.4.13.05.44.1.58.13.06.01.08.02.08.05,0,.06-.06.19-.07.22-.77-.02-1.25-.04-1.64-.02-.37,0-.92.05-1.04.06-.06,0-.1-.04-.12-.07-.02-.08-.02-.13-.02-.18.72-.08,1-.17,1.04-.43.02-.19.07-.6.07-2.16v-2.47c0-1.85,0-1.97-.34-2.06-.14-.05-.31-.08-.61-.11-.05-.01-.07-.05-.07-.06.01-.02.02-.05.04-.11.04-.06.05-.07.08-.08.08-.01.16-.01.29-.01.18,0,.5.02.94.02.59-.01,1.26-.04,1.43-.04.13,0,.14.01.16.04l.04.17Z"/><path class="b" d="M35.3,4.13c.58,0,1.08-.01,1.49-.04.66-.04.76-.05.97-.72.05-.04.23-.02.24-.02-.01.31-.08.76-.08,1.1.01.38.06.76.07,1-.05.04-.11.05-.18.05-.02,0-.05-.02-.07-.08-.05-.14-.1-.3-.14-.46-.1-.29-.24-.41-.74-.44-.24-.02-.68-.02-1.32-.02s-.74.04-.8.05c-.04.01-.07.02-.1.07-.02.06-.12.46-.12,1.42s0,1.32.11,1.52c.16.23.41.31,1.58.31,1.6,0,2.15-.13,2.54-1.38.04-.01.08,0,.17.02.02.02.02.05.02.07-.01.47-.19,1.2-.35,1.56-.06.07-.1.1-.16.1-.1,0-.17,0-.56-.01-.37-.01-1.19-.02-2.06-.02s-1.74.05-2.76.1c-.02-.01-.04-.17-.02-.22.01-.04.04-.05.05-.05.53-.13.61-.24.62-.41.01-.17.07-.98.07-2.24v-1.81c0-1.66-.05-2.21-.07-2.45-.01-.12-.06-.18-.17-.22-.12-.07-.34-.11-.59-.16-.02-.01-.02-.02-.02-.05v-.17s.04-.04.13-.04h.38c.38,0,.78.04,1.44.04h1.14c.6,0,1.5-.06,2.05-.07.2,0,.25.02.3.07.08.06.08.07.05.24-.1.56-.11,1.15-.11,1.42-.19-.01-.24-.04-.25-.1-.13-.94-.22-1.25-1.22-1.25h-.95c-.7,0-1.08.04-1.2.07-.12.05-.14.12-.14.46,0,.86.01,1.71.01,2.58,0,.08.08.18.18.18h.58Z"/><path class="b" d="M39.67.61s.01-.05.05-.06c.59-.01,1.12-.01,1.62-.07.48-.04.83-.05,1.06-.05.64,0,1.38.11,1.96.52s.84.97.84,1.57c0,.96-.82,1.49-1.32,1.78-.07.05-.14.08-.12.19.05.2.37.92.85,1.65.59.89,1.12,1.51,2.19,2.04.08.05.11.1.1.13-.01.06-.04.13-.08.13-.91-.11-1.63-.48-2.27-1.06-.47-.46-.88-1.1-1.32-1.93-.32-.59-.43-.68-1.19-.68-.36,0-.53.01-.6.04-.08.02-.17.07-.17.16,0,.89.01,1.62.06,2.42.01.17.06.3.12.35.12.11.5.2.78.29,0,.04-.05.13-.06.17-.01.02-.04.02-.13.02-.17,0-.97-.01-1.37-.01-.43,0-.64.04-.79.04-.11,0-.13,0-.13-.01-.04-.04-.06-.17-.05-.22.22-.06.58-.14.68-.34.11-.18.13-.92.13-1.88v-1.15c0-1.3-.02-2.61-.04-3.25-.01-.34-.06-.44-.77-.61l-.04-.17ZM44.28,2.5c0-.89-.67-1.79-1.95-1.79-.43,0-.68.05-.85.16-.1.05-.12.12-.14.22-.04.36-.06,1.03-.05,2.41,0,.85.04.91.08.95.04.01.17.04.32.04,1.02,0,1.68-.14,2.09-.64.31-.38.5-.8.5-1.33h0Z"/><path class="b" d="M55.41,4.36c0,.65-.28,1.7-1.13,2.49-.83.78-1.39,1.02-2.04,1.21-.6.17-1.02.18-1.85.18-.59,0-1.75-.05-1.98-.05-.28,0-.7.01-.82.01-.02,0-.05-.2-.04-.24.67-.19.77-.3.78-.61.05-.9.04-2.24.04-3.67s-.02-2.25-.06-2.47c-.02-.24-.18-.35-.7-.43-.02-.01-.04-.05-.04-.1v-.16c.44,0,.67-.01,1.35-.04.77-.01,1.19-.05,1.72-.05.83,0,2.37.13,3.45,1.1.88.78,1.29,1.74,1.29,2.79h0ZM50.74.77c-.53,0-1.33.14-1.44.23-.06.05-.08.12-.1.25-.02.4-.05,1.58-.05,3.5,0,1.44.05,2.31.17,2.79.02.08.07.18.19.22.25.11.71.2,1.08.2.62,0,1.42-.11,2.28-.68,1.03-.68,1.52-1.81,1.52-3.01,0-1.27-.59-2.15-1.1-2.63-.82-.76-1.88-.88-2.54-.88h-.01Z"/><path class="b" d="M59.32.32c.06,0,.08.07.11.17.37,1.16.64,1.75,1.04,2.85.38,1.06,1.39,3.39,1.54,3.73.22.49.36.82,1.07.95.02.02-.02.22-.05.24-.72,0-1.06-.02-1.44-.02s-.73.05-.86.04c-.04,0-.05-.01-.06-.04-.02-.05-.04-.17-.04-.19.67-.19.73-.32.52-.9-.08-.22-.42-1.13-.61-1.61-.02-.08-.08-.19-.19-.19-.97,0-1.92.02-2.66.06-.13,0-.19.06-.26.19-.14.32-.59,1.51-.59,1.83,0,.25.1.36.72.58,0,.06-.04.18-.07.22-.52-.01-1.04-.02-1.28-.02s-.54.02-.64.02c-.07,0-.1-.01-.11-.02-.02-.06-.04-.19-.02-.23.49-.13.59-.28.96-1.02.34-.68,1.7-4.08,2.39-5.76.13-.34.19-.5.25-.7.01-.06.02-.07.06-.1.02-.01.17-.08.23-.08h.01ZM57.91,4.95c.06,0,.35.01.96.01s.97-.01,1.27-.02c.1,0,.12-.1.1-.16-.47-1.22-.7-1.9-1.15-3.01-.04-.1-.12-.07-.16.02-.59,1.37-.74,1.75-1.21,3.01-.02.06.04.14.18.14h.01Z"/><path class="b" d="M63.09,4.42c0-.82.2-1.87,1.02-2.78.59-.65,1.38-.92,2.01-1.1.49-.13,1.25-.22,1.73-.22.53,0,1.18.14,1.54.28.16.05.28,0,.5-.11.01-.01.04.01.06.01.08.04.11.05.1.07-.24.48-.26,1.1-.19,1.64,0,.02-.07.05-.12.06-.11.02-.13.02-.16-.05-.05-.23-.12-.53-.22-.73-.11-.19-.19-.3-.4-.44-.25-.17-.78-.38-1.63-.38-.97,0-1.79.37-2.43,1.16-.42.49-.83,1.38-.83,2.67s.76,3.55,3.53,3.55c.79,0,1.32-.3,1.69-.64.3-.28.46-.54.59-.83.02-.05.05-.06.08-.02.06.05.12.13.1.22-.11.44-.38,1.07-.55,1.31-.07.11-.12.13-.19.13-.34,0-1.25.19-1.92.19-3.05,0-4.31-2.12-4.31-3.98h0Z"/><path class="b" d="M74.87.32c2.08,0,4.02,1.7,4.02,3.87,0,1.48-.73,2.53-1.31,3.14-.79.82-1.86,1.08-2.48,1.08-1.25,0-2.52-.54-3.32-1.44-.61-.68-1.01-1.74-1.01-2.7,0-1.01.4-2.06,1.37-2.9.77-.66,1.74-1.06,2.72-1.06h.01ZM74.5.67c-.64,0-1.25.19-1.87.86-.7.73-.86,1.87-.86,2.6,0,1.07.38,2.08,1.08,2.77.79.82,1.57,1.13,2.42,1.13,1.45,0,2.69-1.03,2.69-3.36,0-1.06-.31-2.1-1.16-3.03-.5-.55-1.24-.97-2.28-.97h-.01Z"/><path class="b" d="M80.11,8.47s-.04-.01-.07-.08c-.05-.08-.07-.25-.08-.47-.02-.55-.08-1.09-.17-1.49-.02-.1-.04-.17.01-.18.05-.01.12-.02.18-.02.04,0,.06.02.1.13.02.18.13.52.35.82.34.5,1.04.91,1.91.91,1.09,0,1.85-.8,1.85-1.8,0-.42-.19-.72-.5-.98-.25-.2-.55-.36-1.55-.76-.82-.34-1.33-.59-1.69-1.02-.23-.26-.41-.78-.41-1.16,0-.83.4-1.34.95-1.64.25-.14.9-.4,1.61-.4.34,0,.94.06,1.13.11.17.04.29.04.34.04.07,0,.19-.12.29-.24.07-.01.16,0,.18.01-.02.66.01,1.21.1,1.67.01.07.01.12-.02.14-.01.02-.11.07-.17.08-.02.01-.04,0-.05-.05-.11-.31-.2-.68-.48-.95-.28-.29-.86-.49-1.55-.49-.95,0-1.54.65-1.54,1.46,0,.4.13.67.31.89.26.32.68.55,1.56.88.84.32,1.35.58,1.74.94.42.4.58.85.58,1.36,0,.84-.41,1.45-1.01,1.8-.5.29-1.46.43-1.82.43-.5,0-.96-.08-1.48-.17-.1-.02-.16,0-.22.02-.06.04-.14.08-.22.14-.07.06-.1.07-.13.07h-.01Z"/><path class="b" d="M87.81,8.01c.18-.02.5-.07.68-.12.3-.06.47-.14.5-.43.04-.16.08-.96.08-2.75v-1.21c0-2.21,0-2.6-.05-2.63h-1.12c-1.16,0-1.49.17-1.58.23-.18.12-.34.43-.49.82-.02.05-.06.05-.1.02-.06-.04-.17-.14-.18-.17.16-.3.42-.89.6-1.74.04-.01.08,0,.16.02.05.01.07.02.07.07.02.23.05.31.13.34.1.04.24.05.53.06.41.01.86.01,1.92.01,1.27,0,2.36-.01,3.12-.05.38-.01.55-.04.68-.08.08-.02.18-.13.26-.34,0-.04.01-.04.05-.04s.13.05.19.1c.01.02,0,.07-.02.14-.23.64-.24.91-.3,1.57,0,.07-.02.1-.08.1-.04,0-.1-.01-.14-.02-.02-.01-.04-.05-.04-.1-.01-.16,0-.48-.02-.6-.01-.07-.05-.17-.17-.22-.12-.06-.62-.14-1.52-.14h-.86c-.14,0-.18.08-.19.31-.01.2-.06.84-.06,2.45v1.2c0,1.76.04,2.27.07,2.48.02.18.08.32.22.42.2.16.71.23,1.06.26.06.01.07.02.07.05l-.04.12s-.04.07-.14.07c-.17,0-1.08-.04-1.65-.04-.49,0-1.19.07-1.45.07-.12,0-.16-.04-.17-.1v-.16Z"/><path class="b" d="M96.95.32c.06,0,.08.07.11.17.37,1.16.64,1.75,1.04,2.85.38,1.06,1.39,3.39,1.54,3.73.22.49.36.82,1.07.95.02.02-.02.22-.05.24-.72,0-1.06-.02-1.44-.02s-.73.05-.86.04c-.04,0-.05-.01-.06-.04-.02-.05-.04-.17-.04-.19.67-.19.73-.32.52-.9-.08-.22-.42-1.13-.61-1.61-.02-.08-.08-.19-.19-.19-.97,0-1.92.02-2.66.06-.13,0-.19.06-.26.19-.14.32-.59,1.51-.59,1.83,0,.25.1.36.72.58,0,.06-.04.18-.07.22-.52-.01-1.04-.02-1.28-.02s-.54.02-.64.02c-.07,0-.1-.01-.11-.02-.02-.06-.04-.19-.02-.23.49-.13.59-.28.96-1.02.34-.68,1.7-4.08,2.39-5.76.13-.34.19-.5.25-.7.01-.06.02-.07.06-.1.02-.01.17-.08.23-.08h.01ZM95.55,4.95c.06,0,.35.01.96.01s.97-.01,1.27-.02c.1,0,.12-.1.1-.16-.47-1.22-.7-1.9-1.15-3.01-.04-.1-.12-.07-.16.02-.59,1.37-.74,1.75-1.21,3.01-.02.06.04.14.18.14h.01Z"/><path class="b" d="M102.26,6.88c.16,0,.46.29.46.64,0,.68-.6,1.5-1.15,1.82-.06.04-.13.06-.22.07-.05,0-.07-.02-.07-.05s.04-.08.1-.16c.28-.31.6-.71.6-1.13,0-.2-.12-.38-.31-.52-.04-.02-.06-.14-.02-.18.19-.1.38-.31.49-.43.04-.05.07-.07.12-.07h.01Z"/></svg>