<?xml version="1.0" encoding="UTF-8"?><svg id="a" xmlns="http://www.w3.org/2000/svg" viewBox="0 0 44.68 10.75"><defs><style>.b{fill:#231f20;stroke-width:0px;}</style></defs><path class="b" d="M3.9.32c.06,0,.08.07.11.17.37,1.16.64,1.75,1.04,2.85.38,1.06,1.39,3.39,1.54,3.73.22.49.36.82,1.07.95.02.02-.02.22-.05.24-.72,0-1.06-.02-1.44-.02s-.73.05-.86.04c-.04,0-.05-.01-.06-.04-.02-.05-.04-.17-.04-.19.67-.19.73-.32.52-.9-.08-.22-.42-1.13-.61-1.61-.02-.08-.08-.19-.19-.19-.97,0-1.92.02-2.66.06-.13,0-.19.06-.26.19-.14.32-.59,1.51-.59,1.83,0,.25.1.36.72.58,0,.06-.04.18-.07.22-.52-.01-1.04-.02-1.28-.02s-.54.02-.64.02c-.07,0-.1-.01-.11-.02-.02-.06-.04-.19-.02-.23.49-.13.59-.28.96-1.02.34-.68,1.7-4.08,2.39-5.76.13-.34.19-.5.25-.7.01-.06.02-.07.06-.1.02-.01.17-.08.23-.08h.01ZM2.5,4.95c.06,0,.35.01.96.01s.97-.01,1.27-.02c.1,0,.12-.1.1-.16-.47-1.22-.7-1.9-1.15-3.01-.04-.1-.12-.07-.16.02-.59,1.37-.74,1.75-1.21,3.01-.02.06.04.14.18.14h.01Z"/><path class="b" d="M9.46,8.01c.18-.02.5-.07.68-.12.3-.06.47-.14.5-.43.04-.16.08-.96.08-2.75v-1.21c0-2.21,0-2.6-.05-2.63h-1.12c-1.16,0-1.49.17-1.58.23-.18.12-.33.43-.49.82-.02.05-.06.05-.1.02-.06-.04-.17-.14-.18-.17.16-.3.42-.89.6-1.74.04-.01.08,0,.16.02.05.01.07.02.07.07.02.23.05.31.13.34.1.04.24.05.53.06.41.01.86.01,1.92.01,1.27,0,2.36-.01,3.12-.05.38-.01.55-.04.68-.08.08-.02.18-.13.26-.34,0-.04.01-.04.05-.04s.13.05.19.1c.01.02,0,.07-.02.14-.23.64-.24.91-.3,1.57,0,.07-.02.1-.08.1-.04,0-.1-.01-.14-.02-.02-.01-.04-.05-.04-.1-.01-.16,0-.48-.02-.6-.01-.07-.05-.17-.17-.22-.12-.06-.62-.14-1.52-.14h-.86c-.14,0-.18.08-.19.31-.01.2-.06.84-.06,2.45v1.2c0,1.76.04,2.27.07,2.48.02.18.08.32.22.42.2.16.71.23,1.06.26.06.01.07.02.07.05l-.04.12s-.04.07-.14.07c-.17,0-1.08-.04-1.66-.04-.49,0-1.19.07-1.45.07-.12,0-.16-.04-.17-.1v-.16Z"/><path class="b" d="M21.36,6.47s.18.06.22.1c.02.05.02.07.01.12-.13.44-.26.85-.35,1.36-.02.12-.1.17-.19.18-.12.01-.25.01-.74.01-.42,0-1.08-.04-2.97-.04-.49,0-1,.05-1.26.07-.14.01-.22.01-.25.01-.02-.04-.07-.18-.07-.24.49-.07.8-.16.91-.55.04-.16.07-.61.07-1.86v-2.55c0-1.02-.02-1.66-.04-1.87-.02-.29-.11-.35-.86-.42-.05-.01-.06-.06-.04-.1l.05-.11s.04-.05.08-.05c.3,0,.58.01.92.01.44-.01,1-.05,1.6-.08.04.04.06.14.05.23-.72.11-.88.2-.92.65-.04.36-.07,1.18-.06,2.22v1.42c.01,1.95.02,2.3.05,2.53.01.13.06.24.23.29.18.07.62.1,1.14.1.92,0,1.62-.02,2.01-.54.18-.23.3-.54.37-.83.01-.04.01-.05.04-.05h.01Z"/><path class="b" d="M26.03.32c.06,0,.08.07.11.17.37,1.16.64,1.75,1.04,2.85.38,1.06,1.39,3.39,1.54,3.73.22.49.36.82,1.07.95.02.02-.02.22-.05.24-.72,0-1.06-.02-1.44-.02s-.73.05-.86.04c-.04,0-.05-.01-.06-.04-.02-.05-.04-.17-.04-.19.67-.19.73-.32.52-.9-.08-.22-.42-1.13-.61-1.61-.02-.08-.08-.19-.19-.19-.97,0-1.92.02-2.66.06-.13,0-.19.06-.26.19-.14.32-.59,1.51-.59,1.83,0,.25.1.36.72.58,0,.06-.04.18-.07.22-.52-.01-1.04-.02-1.28-.02s-.54.02-.64.02c-.07,0-.1-.01-.11-.02-.02-.06-.04-.19-.02-.23.49-.13.59-.28.96-1.02.34-.68,1.7-4.08,2.39-5.76.13-.34.19-.5.25-.7.01-.06.02-.07.06-.1.02-.01.17-.08.23-.08h.01ZM24.62,4.95c.06,0,.35.01.96.01s.97-.01,1.27-.02c.1,0,.12-.1.1-.16-.47-1.22-.7-1.9-1.15-3.01-.04-.1-.12-.07-.16.02-.59,1.37-.74,1.75-1.21,3.01-.02.06.04.14.18.14h.01Z"/><path class="b" d="M30.87,8.47s-.04-.01-.07-.08c-.05-.08-.07-.25-.08-.47-.02-.55-.08-1.09-.17-1.49-.02-.1-.04-.17.01-.18.05-.01.12-.02.18-.02.04,0,.06.02.1.13.02.18.13.52.35.82.34.5,1.04.91,1.91.91,1.09,0,1.85-.8,1.85-1.8,0-.42-.19-.72-.5-.98-.25-.2-.55-.36-1.55-.76-.82-.34-1.33-.59-1.69-1.02-.23-.26-.41-.78-.41-1.16,0-.83.4-1.34.95-1.64.25-.14.9-.4,1.61-.4.34,0,.94.06,1.13.11.17.04.29.04.34.04.07,0,.19-.12.29-.24.07-.01.16,0,.18.01-.02.66.01,1.21.1,1.67.01.07.01.12-.02.14-.01.02-.11.07-.17.08-.02.01-.04,0-.05-.05-.11-.31-.2-.68-.48-.95-.28-.29-.86-.49-1.55-.49-.95,0-1.54.65-1.54,1.46,0,.4.13.67.31.89.26.32.68.55,1.56.88.84.32,1.36.58,1.74.94.42.4.58.85.58,1.36,0,.84-.41,1.45-1.01,1.8-.5.29-1.46.43-1.82.43-.5,0-.96-.08-1.47-.17-.1-.02-.16,0-.22.02-.06.04-.14.08-.22.14-.07.06-.1.07-.13.07h-.01Z"/><path class="b" d="M38.24,7.74l-.55-.55,5.68-5.68h-4.54v-.76h5.85v5.85h-.77V2.06s-5.66,5.68-5.66,5.68Z"/></svg>