<svg xmlns="http://www.w3.org/2000/svg" xmlns:xlink="http://www.w3.org/1999/xlink" baseProfile="tiny" viewBox="0 0 653.5 421.1" overflow="visible" xmlns:v="https://vecta.io/nano"><style><![CDATA[.B{fill-rule:evenodd}.C{fill:#fff}.D{fill:none}.E{stroke:#000}.F{stroke-width:.5}.G{stroke-linecap:round}.H{stroke-linejoin:round}.I{stroke-miterlimit:10}.J{fill:#999}.K{stroke:#333}]]></style><path d="M380.7 92.6h11.4m5 0h0m4 0h10m5 0h0m4 0h10m5 0h0m4 0h10m5 0h0m4 0h10m5 0h0m4 0h11.3m-107.7 39h11.4m5 0h0m4 0h10m5 0h0m4 0h10m5 0h0m4 0h10m5 0h0m4 0h10m5 0h0m4 0h11.3" class="D E F G H I"/><use xlink:href="#B" class="B C"/><g class="D E F G H I"><path d="M274.3 288.6l-.1-.2m0 0v-.3m0 0l-.2-.2m0 0l-.1-.2m0 0l-.2-.1m0 0l-.3-.2m0 0h-.2m0 0h-.3m0 0h-.2m0 0l-.2.1m0 0l-.3.1m0 0l-.1.2m0 0l-.2.2m0 0l-.1.2m0 0v.3m0 0v.2m0 0v.3m0 0l.1.2m0 0l.2.2m0 0l.1.2m0 0l.3.2m0 0h.2m0 0l.2.1m0 0h.3m0 0l.2-.1m0 0l.3-.1m0 0l.2-.2m0 0l.1-.2m0 0l.2-.2"/><path d="M274.2 289.1v-.2m0 0l.1-.3m-.1 0l-.1.3m0 0v.2m0 0l-.1.2m0 0l-.2.2m0 0l-.2.1m0 0l-.2.1m0 0l-.2.1m0 0h-.2m0 0l-.3-.1m0 0h-.2m0 0l-.2-.2m0 0l-.2-.1m0 0l-.1-.2m0 0l-.1-.2"/><path d="M271.9 289v-.3m0 0v-.2m0 0v-.2m0 0l.1-.2m0 0l.1-.2m0 0l.2-.2m0 0l.2-.1m0 0l.2-.1m0 0h.3m0 0h.2m0 0h.2m0 0l.2.1m0 0l.2.2m0 0l.2.2m0 0l.1.2m0 0v.2m0 0l.1.2"/></g><path d="M274.2 132.7v-.2l-.1-.2-.1-.3-.2-.2-.2-.1-.2-.1-.2-.1h-.2-.2l-.2.1-.2.1-.2.2-.1.2-.1.2v.2.2.2l.1.2.1.2.2.2.2.1.2.1h.2.2l.2-.1.2-.1.2-.1.2-.2.1-.2.1-.2v-.1m.1 0v.3l-.1.2-.1.2-.2.2-.2.2-.2.1-.2.1h-.3-.3l-.2-.1-.2-.1-.2-.2-.1-.2-.1-.2-.1-.2v-.3l.1-.2.1-.2.1-.2.2-.2.2-.1.2-.1h.3.3l.2.1.2.1.2.2.2.2.2.4" class="B C"/><g class="D E F G H I"><path d="M274.3 132.7l-.1-.3m0 0v-.2m0 0l-.2-.3m0 0l-.1-.2m0 0l-.2-.1m0 0l-.3-.1m0 0l-.2-.1m0 0h-.3m0 0h-.2m0 0l-.2.1m0 0l-.3.2m0 0l-.1.1m0 0l-.2.2m0 0l-.1.3m0 0v.2m0 0v.3m0 0v.2m0 0l.1.3m0 0l.2.2m0 0l.1.1m0 0l.3.2m0 0l.2.1m0 0h.2m0 0h.3m0 0l.2-.1m0 0l.3-.1m0 0l.2-.1m0 0l.1-.2m0 0l.2-.3"/><path d="M274.2 133.1v-.2m0 0l.1-.2m-.1 0l-.1.2m0 0v.2m0 0l-.1.2m0 0l-.2.2m0 0l-.2.1m0 0l-.2.1m0 0l-.2.1m0 0h-.2m0 0h-.3m0 0l-.2-.1m0 0l-.2-.1m0 0l-.2-.2m0 0l-.1-.2m0 0l-.1-.2"/><path d="M271.9 133v-.2m0 0v-.3m0 0v-.2m0 0l.1-.2m0 0l.1-.2m0 0l.2-.2m0 0l.2-.1m0 0l.2-.1m0 0h.3m0 0h.2m0 0l.2.1m0 0l.2.1m0 0l.2.1m0 0l.2.2m0 0l.1.2m0 0v.2m0 0l.1.3"/></g><path d="M275.8 210.7v2.8h-.4v-2.7h-4.8v2.7h-.4v-5.7h.4v2.7h4.8v-2.7h.4v2.9" class="B C"/><g class="D E F G H I"><path d="M275.8 210.7v-2.9m0 0h-.4m0 0v2.7m0 0h-4.8"/><path d="M270.6 210.5v-2.7m0 0h-.4m0 0v5.7m0 0h.4m0 0v-2.7m0 0h4.8m0 0v2.7m0 0h.4m0 0v-2.8"/></g><use xlink:href="#C" class="B C"/><g class="D E F G H I"><path d="M267.7 210.7v.2m0 0l.1.3m0 0l.1.2m0 0l.2.2m0 0l.2.1m0 0l.2.2m0 0h.2m0 0h.3m0 0h.2m0 0l.3-.1m0 0l.2-.1m0 0l.2-.2m0 0l.1-.2m0 0l.1-.3m0 0l.1-.2m0 0v-.3m0 0l-.1-.2m0 0l-.1-.2m0 0l-.1-.3m0 0l-.2-.1m0 0l-.2-.2"/><path d="M269.5 209.5h-.3m0 0l-.2-.1m0 0h-.3m0 0l-.2.1m0 0l-.2.1m0 0l-.2.2m0 0l-.2.1m0 0l-.1.3m0 0l-.1.2m0 0v.3m.1 0l.1-.2"/><path d="M267.9 210.5v-.3m0 0l.1-.1m0 0l.2-.2m0 0l.2-.1m0 0l.2-.1m0 0l.2-.1m0 0h.2m0 0h.2m0 0l.2.1m0 0l.2.1m0 0l.1.2m0 0l.2.1m0 0l.1.2m0 0v.3m0 0v.2m0 0v.2m0 0l-.1.2m0 0l-.2.2m0 0l-.1.1m0 0l-.2.1m0 0l-.2.1m0 0h-.2m0 0h-.2m0 0h-.2m0 0l-.2-.1m0 0l-.2-.1m0 0l-.2-.2m0 0l-.1-.2"/><path d="M267.9 211.1v-.2m0 0l-.1-.2"/></g><use xlink:href="#B" x="-215.5" class="B C"/><g class="D E F G H I"><path d="M58.8 288.6v-.2m0 0l-.1-.3m0 0l-.1-.2m0 0l-.2-.2m0 0l-.2-.1m0 0l-.2-.2m0 0h-.2m0 0h-.3m0 0h-.2m0 0l-.3.1m0 0l-.2.1m0 0l-.2.2m0 0l-.1.2m0 0l-.1.2m0 0l-.1.3m0 0v.2m0 0l.1.3m0 0l.1.2m0 0l.1.2m0 0l.2.2m0 0l.2.2m0 0h.3m0 0l.2.1m0 0h.3m0 0l.2-.1m0 0l.2-.1m0 0l.2-.2m0 0l.2-.2m0 0l.1-.2m0 0l.1-.2"/><path d="M58.8 288.9v-.3m-.1 0v.3m0 0l-.1.2m0 0l-.1.2m0 0l-.1.2m0 0l-.2.1m0 0l-.2.1m0 0l-.2.1m0 0h-.3m0 0l-.2-.1m0 0h-.2m0 0l-.2-.2m0 0l-.2-.1m0 0l-.1-.2m0 0l-.1-.2m0 0l-.1-.3"/><path d="M56.4 288.7v-.2m0 0l.1-.2m0 0l.1-.2m0 0l.1-.2m0 0l.2-.2m0 0l.2-.1m0 0l.2-.1m0 0h.2m0 0h.3m0 0h.2m0 0l.2.1m0 0l.2.2m0 0l.1.2m0 0l.1.2m0 0l.1.2m0 0v.2"/></g><use xlink:href="#B" x="-215.5" y="-155.9" class="B C"/><g class="D E F G H I"><path d="M58.8 132.7v-.3m0 0l-.1-.2m0 0l-.1-.3m0 0l-.2-.2m0 0l-.2-.1m0 0l-.2-.1m0 0l-.2-.1m0 0h-.3m0 0h-.2m0 0l-.3.1m0 0l-.2.2m0 0l-.2.1m0 0l-.1.2m0 0l-.1.3m0 0l-.1.2m0 0v.3m0 0l.1.2m0 0l.1.3m0 0l.1.2m0 0l.2.1m0 0l.2.2m0 0l.3.1m0 0h.2m0 0h.3m0 0l.2-.1m0 0l.2-.1m0 0l.2-.1m0 0l.2-.2m0 0l.1-.3m0 0l.1-.2"/><path d="M58.8 132.9v-.2m-.1 0v.2m0 0l-.1.2m0 0l-.1.2m0 0l-.1.2m0 0l-.2.1m0 0l-.2.1m0 0l-.2.1m0 0h-.3m0 0h-.2m0 0l-.2-.1m0 0l-.2-.1m0 0l-.2-.2m0 0l-.1-.2m0 0l-.1-.2m0 0l-.1-.2m0 0v-.3m0 0l.1-.2m0 0l.1-.2m0 0l.1-.2m0 0l.2-.2m0 0l.2-.1m0 0l.2-.1"/><path d="M57.3 131.5h.2m0 0h.3m0 0l.2.1m0 0l.2.1m0 0l.2.1m0 0l.1.2m0 0l.1.2m0 0l.1.2m0 0v.3"/></g><use xlink:href="#B" x="215.4" class="B C"/><g class="D F G H I"><g class="K"><path d="M489.7 288.9v-.3m-.1.5l.1-.2m-.2.4l.1-.2m-.3.4l.2-.2m-.4.4l.2-.2m-.4.3l.2-.1m-.5.2l.3-.1m-.5.1h.2m-.5-.1l.3.1m-.5-.1h.2m-.4-.2l.2.2m-.4-.4l.2.2m-.4-.4l.2.2m-.3-.4l.1.2"/><path d="M487.2 288.7v.3m0-.5v.2m0-.5v.3m.1-.5l-.1.2m.3-.4l-.2.2m.4-.4l-.2.2m.4-.3l-.2.1m.4-.2l-.2.1m.5-.1h-.3m.5 0h-.2m.5 0h-.3m.5.2l-.2-.2m.4.3l-.2-.1m.4.3l-.2-.2m.3.4l-.1-.2m.2.5l-.1-.3m.1.5v-.2m-.1 0v.2m-.1-.4l.1.2m-.2-.4l.1.2m-.3-.4l.2.2"/><path d="M489.1 287.6l.1.2m-.4-.3l.3.1m-.5-.1h.2m-.4 0h.2m-.4 0h.2m-.5.1l.3-.1m-.5.2l.2-.1m-.3.3l.1-.2m-.3.4l.2-.2m-.2.4v-.2m-.1.4l.1-.2m-.1.4v-.2m.1.5l-.1-.3m.1.5v-.2m.2.4l-.2-.2m.3.3l-.1-.1m.3.3l-.2-.2m.5.2h-.3m.5.1l-.2-.1m.4.1h-.2m.4-.1l-.2.1m.5-.2l-.3.1m.4-.2l-.1.1m.3-.3l-.2.2m.3-.4l-.1.2m.2-.4l-.1.2"/><path d="M489.6 288.6v.3"/></g><g class="E"><path d="M489.7 288.6v-.2m0 0l-.1-.3m0 0l-.1-.2m0 0l-.2-.2m0 0l-.2-.1m0 0l-.2-.2m0 0h-.3m0 0h-.2m0 0h-.3m0 0l-.2.1m0 0l-.2.1m0 0l-.2.2m0 0l-.2.2m0 0l-.1.2m0 0v.3m0 0v.2m0 0v.3m0 0l.1.2m0 0l.2.2m0 0l.2.2m0 0l.2.2m0 0h.2m0 0l.3.1m0 0h.2m0 0l.3-.1m0 0l.2-.1m0 0l.2-.2m0 0l.2-.2m0 0l.1-.2m0 0l.1-.2"/><path d="M489.7 288.9v-.3m-.1 0v.3m0 0l-.1.2m0 0l-.1.2m0 0l-.2.2m0 0l-.1.1m0 0l-.3.1m0 0l-.2.1m0 0h-.2m0 0l-.2-.1m0 0h-.3m0 0l-.2-.2m0 0l-.1-.1m0 0l-.2-.2"/><path d="M487.4 289.2v-.2m0 0l-.1-.3m0 0v-.2m0 0l.1-.2m0 0v-.2m0 0l.2-.2m0 0l.1-.2m0 0l.2-.1m0 0l.3-.1m0 0h.2m0 0h.2m0 0h.2m0 0l.3.1m0 0l.1.2m0 0l.2.2m0 0l.1.2m0 0l.1.2m0 0v.2"/></g></g><use xlink:href="#B" x="215.4" y="-155.9" class="B C"/><g class="D F G H I"><g class="K"><path d="M489.7 132.9v-.2m-.1.4l.1-.2m-.2.5l.1-.3m-.3.5l.2-.2m-.4.3l.2-.1m-.4.2l.2-.1m-.5.2l.3-.1m-.5.1h.2m-.5 0h.3m-.5-.1l.2.1m-.4-.3l.2.2m-.4-.3l.2.1m-.4-.3l.2.2m-.3-.5l.1.3"/><path d="M487.2 132.8v.2m0-.5v.3m0-.5v.2m.1-.5l-.1.3m.3-.5l-.2.2m.4-.3l-.2.1m.4-.3l-.2.2m.4-.3l-.2.1m.5-.1h-.3m.5 0h-.2m.5.1l-.3-.1m.5.2l-.2-.1m.4.2l-.2-.1m.4.3l-.2-.2m.3.5l-.1-.3m.2.5l-.1-.2m.1.5v-.3m-.1 0v.3m-.1-.5l.1.2m-.2-.4l.1.2m-.3-.4l.2.2m-.3-.3l.1.1m-.4-.2l.3.1m-.5-.2l.2.1m-.4-.1h.2m-.4 0h.2m-.5.1l.3-.1"/><path d="M487.7 131.7l.2-.1m-.3.3l.1-.2m-.3.4l.2-.2m-.2.4v-.2m-.1.4l.1-.2m-.1.5v-.3m.1.5l-.1-.2m.1.4v-.2m.2.4l-.2-.2m.3.4l-.1-.2m.3.3l-.2-.1m.5.2l-.3-.1m.5.1h-.2m.4 0h-.2m.4-.1l-.2.1m.5-.2l-.3.1m.4-.2l-.1.1m.3-.3l-.2.2m.3-.4l-.1.2m.2-.4l-.1.2"/><path d="M489.6 132.7v.2"/></g><g class="E"><path d="M489.7 132.7v-.3m0 0l-.1-.2m0 0l-.1-.3m0 0l-.2-.2m0 0l-.2-.1m0 0l-.2-.1m0 0l-.3-.1m0 0h-.2m0 0h-.3m0 0l-.2.1m0 0l-.2.2m0 0l-.2.1m0 0l-.2.2m0 0l-.1.3m0 0v.2m0 0v.3m0 0v.2m0 0l.1.3m0 0l.2.2m0 0l.2.1m0 0l.2.2m0 0l.2.1m0 0h.3m0 0h.2m0 0l.3-.1m0 0l.2-.1m0 0l.2-.1m0 0l.2-.2m0 0l.1-.3m0 0l.1-.2"/><path d="M489.7 132.9v-.2m-.1 0v.2m0 0l-.1.2m0 0l-.1.2m0 0l-.2.2m0 0l-.1.1m0 0l-.3.1m0 0l-.2.1m0 0h-.2m0 0h-.2m0 0l-.3-.1m0 0l-.2-.1m0 0l-.1-.2m0 0l-.2-.2"/><path d="M487.4 133.2v-.2m0 0l-.1-.2m0 0v-.3m0 0l.1-.2m0 0v-.2m0 0l.2-.2m0 0l.1-.2m0 0l.2-.1m0 0l.3-.1m0 0h.2m0 0h.2m0 0l.2.1m0 0l.3.1m0 0l.1.1m0 0l.2.2m0 0l.1.2m0 0l.1.2m0 0v.3"/></g></g><path d="M491.3 210.7v2.8h-.4v-2.7H486v2.7h-.4v-5.7h.4v2.7h4.9v-2.7h.4v2.9" class="B C"/><g class="D F G H I"><g class="K"><path d="M491.3 213.5v-2.8m-.4 2.8h.4"/><path d="M490.9 210.8v2.7m-4.9-2.7h4.9m-4.9 2.7v-2.7m-.4 2.7h.4m-.4-5.7v5.7"/><path d="M486 207.8h-.4m.4 2.7v-2.7m4.9 2.7H486"/><path d="M490.9 207.8v2.7m.4-2.7h-.4m.4 2.9v-2.9"/></g><g class="E"><path d="M491.3 210.7v-2.9m0 0h-.4m0 0v2.7m0 0H486"/><path d="M486 210.5v-2.7m0 0h-.4m0 0v5.7m0 0h.4"/><path d="M486 213.5v-2.7m0 0h4.9m0 0v2.7m0 0h.4"/><path d="M491.3 213.5v-2.8"/></g></g><use xlink:href="#D" class="B C"/><g class="D F G H I"><g class="K"><path d="M483.1 210.4v.3m.1-.5l-.1.2m.2-.5l-.1.3m.3-.4l-.2.1m.4-.3l-.2.2m.4-.3l-.2.1m.5-.2l-.3.1m.5-.1h-.2m.5.1l-.3-.1m.5.1h-.2m.4.2l-.2-.2m.4.3l-.2-.1m.4.4l-.2-.3m.3.5l-.1-.2m.1.4v-.2m0 .5v-.3m0 .5v-.2m-.1.5l.1-.3m-.3.5l.2-.2m-.4.4l.2-.2m-.4.3l.2-.1m-.4.2l.2-.1m-.5.1h.3m-.5 0h.2m-.5 0h.3m-.5-.2l.2.2m-.4-.3l.2.1m-.4-.3l.2.2m-.3-.4l.1.2m-.2-.5l.1.3"/><path d="M483.1 210.7v.2m.2 0v-.2m.1.4l-.1-.2m.2.4l-.1-.2m.2.4l-.1-.2m.3.3l-.2-.1m.4.2l-.2-.1m.4.1h-.2m.4 0h-.2m.4 0h-.2m.4-.1l-.2.1m.4-.2l-.2.1m.4-.2l-.2.1m.3-.3l-.1.2m.2-.4l-.1.2"/><path d="M485.4 210.8v.2m0-.4v.2m0-.5v.3m-.1-.5l.1.2m-.2-.3l.1.1m-.3-.3l.2.2m-.4-.3l.2.1m-.4-.2l.2.1m-.4-.1h.2m-.4 0h.2m-.4.1l.2-.1m-.4.2l.2-.1m-.4.2l.2-.1m-.3.3l.1-.2m-.2.3l.1-.1m-.2.4l.1-.3m-.1.5v-.2"/></g><g class="E"><path d="M483.1 210.7v.2m0 0l.1.3m0 0l.1.2m0 0l.2.2m0 0l.2.1m0 0l.2.2m0 0h.3m0 0h.2m0 0h.3m0 0l.2-.1m0 0l.2-.1m0 0l.2-.2m0 0l.2-.2m0 0l.1-.3"/><path d="M485.6 211v-.2m0 0v-.3m0 0v-.2m0 0l-.1-.2m0 0l-.2-.3m0 0l-.2-.1m0 0l-.2-.2m0 0h-.2m0 0l-.3-.1m0 0h-.2m0 0l-.3.1m0 0l-.2.1m0 0l-.2.2m0 0l-.2.1m0 0l-.1.3m0 0l-.1.2m0 0v.3m.2 0v-.2m0 0l.1-.3m0 0l.1-.1m0 0l.1-.2m0 0l.2-.1m0 0l.2-.1m0 0l.2-.1m0 0h.2m0 0h.2m0 0l.2.1m0 0l.2.1m0 0l.2.2m0 0l.1.1m0 0l.1.2m0 0v.3m0 0v.2m0 0v.2m0 0l-.1.2m0 0l-.1.2m0 0l-.2.1m0 0l-.2.1m0 0l-.2.1m0 0h-.2m0 0h-.2m0 0h-.2m0 0l-.2-.1m0 0l-.2-.1m0 0l-.1-.2m0 0l-.1-.2m0 0l-.1-.2"/><path d="M483.3 210.9v-.2"/></g></g><use xlink:href="#B" x="107.7" class="B C"/><g class="D E F G H I"><path d="M382 288.6v-.2m0 0l-.1-.3m0 0l-.1-.2m0 0l-.2-.2m0 0l-.2-.1m0 0l-.2-.2m0 0h-.3m0 0h-.2m0 0h-.3m0 0l-.2.1m0 0l-.2.1m0 0l-.2.2m0 0l-.2.2m0 0l-.1.2m0 0v.3m0 0v.2m0 0v.3m0 0l.1.2m0 0l.2.2m0 0l.2.2m0 0l.2.2m0 0h.2m0 0l.3.1m0 0h.2m0 0l.3-.1m0 0l.2-.1m0 0l.2-.2m0 0l.2-.2m0 0l.1-.2m0 0l.1-.2"/><path d="M382 288.9v-.3m-.1 0v.3m0 0l-.1.2m0 0l-.1.2m0 0l-.2.2m0 0l-.2.1m0 0l-.2.1m0 0l-.2.1m0 0h-.2m0 0l-.3-.1m0 0h-.2m0 0l-.2-.2m0 0l-.1-.1m0 0l-.2-.2m0 0l-.1-.2"/><path d="M379.6 289v-.3m0 0v-.2m0 0v-.2m0 0l.1-.2m0 0l.2-.2m0 0l.1-.2m0 0l.2-.1m0 0l.2-.1m0 0h.3m0 0h.2m0 0h.2m0 0l.2.1m0 0l.2.2m0 0l.2.2m0 0l.1.2m0 0l.1.2m0 0v.2"/></g><use xlink:href="#B" x="107.7" y="-155.9" class="B C"/><g class="D E F G H I"><path d="M382 132.7v-.3m0 0l-.1-.2m0 0l-.1-.3m0 0l-.2-.2m0 0l-.2-.1m0 0l-.2-.1m0 0l-.3-.1m0 0h-.2m0 0h-.3m0 0l-.2.1m0 0l-.2.2m0 0l-.2.1m0 0l-.2.2m0 0l-.1.3m0 0v.2m0 0v.3m0 0v.2m0 0l.1.3m0 0l.2.2m0 0l.2.1m0 0l.2.2m0 0l.2.1m0 0h.3m0 0h.2m0 0l.3-.1m0 0l.2-.1m0 0l.2-.1m0 0l.2-.2m0 0l.1-.3m0 0l.1-.2"/><path d="M382 132.9v-.2m-.1 0v.2m0 0l-.1.2m0 0l-.1.2m0 0l-.2.2m0 0l-.2.1m0 0l-.2.1m0 0l-.2.1m0 0h-.2m0 0h-.3m0 0l-.2-.1m0 0l-.2-.1m0 0l-.1-.2m0 0l-.2-.2m0 0l-.1-.2"/><path d="M379.6 133v-.2m0 0v-.3m0 0v-.2m0 0l.1-.2m0 0l.2-.2m0 0l.1-.2m0 0l.2-.1m0 0l.2-.1m0 0h.3m0 0h.2m0 0l.2.1m0 0l.2.1m0 0l.2.1m0 0l.2.2m0 0l.1.2m0 0l.1.2m0 0v.3"/></g><path d="M383.6 210.7v2.8h-.5v-2.7h-4.8v2.7h-.4v-5.7h.4v2.7h4.8v-2.7h.5v2.9" class="B C"/><g class="D E F G H I"><path d="M383.6 210.7v-2.9m0 0h-.5m0 0v2.7m0 0h-4.8"/><path d="M378.3 210.5v-2.7m0 0h-.4m0 0v5.7m0 0h.4m0 0v-2.7m0 0h4.8m0 0v2.7m0 0h.5"/><path d="M383.6 213.5v-2.8"/></g><use xlink:href="#D" x="-107.7" class="B C"/><g class="D E F G H I"><path d="M375.4 210.7v.2m0 0l.1.3m0 0l.1.2m0 0l.2.2m0 0l.2.1m0 0l.2.2m0 0h.3m0 0h.2m0 0h.3m0 0l.2-.1m0 0l.2-.1m0 0l.2-.2m0 0l.1-.2m0 0l.1-.3m0 0l.1-.2m0 0v-.3m0 0l-.1-.2m0 0l-.1-.2m0 0l-.1-.3m0 0l-.2-.1m0 0l-.2-.2"/><path d="M377.2 209.5h-.2m0 0l-.3-.1m0 0h-.2m0 0l-.3.1m0 0l-.2.1m0 0l-.2.2m0 0l-.2.1m0 0l-.1.3m0 0l-.1.2m0 0v.3m.2 0v-.2m0 0v-.3m0 0l.2-.1m0 0l.1-.2m0 0l.2-.1m0 0l.2-.1m0 0l.2-.1m0 0h.2m0 0h.2m0 0l.2.1m0 0l.2.1m0 0l.2.2m0 0l.1.1m0 0l.1.2m0 0v.3m0 0v.2m0 0v.2m0 0l-.1.2m0 0l-.1.2m0 0l-.2.1m0 0l-.2.1m0 0l-.2.1m0 0h-.2m0 0h-.2m0 0h-.2m0 0l-.2-.1m0 0l-.2-.1m0 0l-.1-.2m0 0l-.2-.2"/><path d="M375.6 211.1v-.2m0 0v-.2"/></g><use xlink:href="#C" x="-107.7" class="B C"/><g class="D E F G H I"><path d="M160 210.7v.2m0 0l.1.3m0 0l.1.2m0 0l.1.2m0 0l.2.1m0 0l.3.2m0 0h.2m0 0h.3m0 0h.2m0 0l.3-.1m0 0l.2-.1m0 0l.2-.2m0 0l.1-.2m0 0l.1-.3m0 0l.1-.2m0 0v-.3m0 0l-.1-.2m0 0l-.1-.2m0 0l-.1-.3m0 0l-.2-.1m0 0l-.2-.2"/><path d="M161.8 209.5h-.3m0 0l-.2-.1m0 0h-.3m0 0l-.2.1m0 0l-.3.1m0 0l-.2.2m0 0l-.1.1m0 0l-.1.3m0 0l-.1.2m0 0v.3m.1 0l.1-.2"/><path d="M160.2 210.5v-.3m0 0l.1-.1m0 0l.2-.2m0 0l.1-.1m0 0l.2-.1m0 0l.2-.1m0 0h.3m0 0h.2m0 0l.2.1m0 0l.2.1m0 0l.1.2m0 0l.2.1m0 0v.2m0 0l.1.3m0 0v.2m0 0l-.1.2m0 0v.2m0 0l-.2.2m0 0l-.1.1m0 0l-.2.1m0 0l-.2.1m0 0h-.2m0 0h-.3m0 0h-.2m0 0l-.2-.1m0 0l-.1-.1m0 0l-.2-.2m0 0l-.1-.2m0 0v-.2m0 0l-.1-.2"/></g><path d="M60.4 210.7v2.8H60v-2.7h-4.8v2.7h-.5v-5.7h.5v2.7H60v-2.7h.4v2.9" class="B C"/><g class="D E F G H I"><path d="M60.4 210.7v-2.9m0 0H60m0 0v2.7m0 0h-4.8"/><path d="M55.2 210.5v-2.7m0 0h-.5m0 0v5.7m0 0h.5"/><path d="M55.2 213.5v-2.7m0 0H60m0 0v2.7m0 0h.4"/><path d="M60.4 213.5v-2.8"/></g><path d="M168.1 210.7v2.8h-.4v-2.7h-4.8v2.7h-.4v-5.7h.4v2.7h4.8v-2.7h.4v2.9" class="B C"/><g class="D E F G H I"><path d="M168.1 210.7v-2.9m0 0h-.4m0 0v2.7m0 0h-4.8"/><path d="M162.9 210.5v-2.7m0 0h-.4m0 0v5.7m0 0h.4"/><path d="M162.9 213.5v-2.7m0 0h4.8m0 0v2.7m0 0h.4"/><path d="M168.1 213.5v-2.8"/></g><use xlink:href="#E" class="B C"/><g class="D E F G H I"><path d="M166.6 132.7l-.1-.3m0 0v-.2m0 0l-.2-.3m0 0l-.1-.2m0 0l-.2-.1m0 0l-.3-.1m0 0l-.2-.1m0 0h-.3m0 0h-.2m0 0l-.3.1m0 0l-.2.2m0 0l-.2.1m0 0l-.1.2m0 0l-.1.3m0 0l-.1.2m0 0v.3m0 0l.1.2m0 0l.1.3m0 0l.1.2m0 0l.2.1m0 0l.2.2m0 0l.3.1m0 0h.2m0 0h.3m0 0l.2-.1m0 0l.3-.1m0 0l.2-.1m0 0l.1-.2m0 0l.2-.3"/><path d="M166.5 133.1v-.2m0 0l.1-.2m-.2 0v.2m0 0l-.1.2m0 0l-.1.2m0 0l-.1.2m0 0l-.2.1m0 0l-.2.1m0 0l-.2.1m0 0h-.3m0 0h-.2m0 0l-.2-.1m0 0l-.2-.1m0 0l-.2-.2m0 0l-.1-.2m0 0l-.1-.2m0 0v-.2m0 0v-.3m0 0v-.2m0 0l.1-.2m0 0l.1-.2m0 0l.2-.2m0 0l.2-.1m0 0l.2-.1"/><path d="M165 131.5h.2m0 0h.3m0 0l.2.1m0 0l.2.1m0 0l.2.1m0 0l.1.2m0 0l.1.2m0 0l.1.2m0 0v.3"/></g><use xlink:href="#E" y="155.9" class="B C"/><g class="D E F G H I"><path d="M166.6 288.6l-.1-.2m0 0v-.3m0 0l-.2-.2m0 0l-.1-.2m0 0l-.2-.1m0 0l-.3-.2m0 0h-.2m0 0h-.3m0 0h-.2m0 0l-.3.1m0 0l-.2.1m0 0l-.2.2m0 0l-.1.2m0 0l-.1.2m0 0l-.1.3m0 0v.2m0 0l.1.3m0 0l.1.2m0 0l.1.2m0 0l.2.2m0 0l.2.2m0 0h.3m0 0l.2.1m0 0h.3m0 0l.2-.1m0 0l.3-.1m0 0l.2-.2m0 0l.1-.2m0 0l.2-.2"/><path d="M166.5 289.1v-.2m0 0l.1-.3m-.2 0v.3m0 0l-.1.2m0 0l-.1.2m0 0l-.1.2m0 0l-.2.1m0 0l-.2.1m0 0l-.2.1m0 0h-.3m0 0l-.2-.1m0 0h-.2m0 0l-.2-.2m0 0l-.2-.1m0 0l-.1-.2m0 0l-.1-.2m0 0v-.3m0 0v-.2m0 0v-.2m0 0l.1-.2m0 0l.1-.2m0 0l.2-.2m0 0l.2-.1m0 0l.2-.1"/><path d="M165 287.5h.2m0 0h.3m0 0h.2m0 0l.2.1m0 0l.2.2m0 0l.1.2m0 0l.1.2m0 0l.1.2m0 0v.2m-106.8-1h105.7"/></g><path d="M599 210.7v2.8h-.4v-2.7h-4.8v2.7h-.5v-5.7h.5v2.7h4.8v-2.7h.4v2.9" class="B C"/><g class="D E F G H I"><path d="M599 210.7v-2.9m0 0h-.4m0 0v2.7m0 0h-4.8m0 0v-2.7m0 0h-.5m0 0v5.7m0 0h.5"/><path d="M593.8 213.5v-2.7m0 0h4.8m0 0v2.7m0 0h.4"/><path d="M599 213.5v-2.8"/></g><use xlink:href="#D" x="107.7" class="B C"/><g class="D E F G H I"><path d="M590.8 210.7v.2m0 0l.1.3m0 0l.1.2m0 0l.2.2m0 0l.2.1m0 0l.2.2m0 0h.3m0 0h.2m0 0h.3m0 0l.2-.1m0 0l.2-.1m0 0l.2-.2m0 0l.2-.2m0 0l.1-.3"/><path d="M593.3 211v-.2m0 0v-.3m0 0v-.2m0 0l-.1-.2m0 0l-.2-.3m0 0l-.2-.1m0 0l-.2-.2m0 0h-.2m0 0l-.3-.1m0 0h-.2m0 0l-.3.1m0 0l-.2.1m0 0l-.2.2m0 0l-.2.1m0 0l-.1.3m0 0l-.1.2m0 0v.3m.2 0v-.2m0 0l.1-.3m0 0l.1-.1m0 0l.1-.2m0 0l.2-.1m0 0l.2-.1m0 0l.2-.1m0 0h.2m0 0h.3m0 0l.2.1m0 0l.1.1m0 0l.2.2m0 0l.1.1m0 0l.1.2m0 0l.1.3m0 0v.2m0 0l-.1.2m0 0l-.1.2m0 0l-.1.2m0 0l-.2.1m0 0l-.1.1m0 0l-.2.1m0 0h-.3m0 0h-.2m0 0h-.2m0 0l-.2-.1m0 0l-.2-.1m0 0l-.1-.2m0 0l-.1-.2m0 0l-.1-.2"/><path d="M591 210.9v-.2m-423.7 118H271"/><path d="M167.3 326.6H271m-103.7-36.8H273m-105.7-2.2H273M59.6 328.7h103.7"/><path d="M59.6 326.6h103.7M59.6 289.8h105.7m215.4 38.9h11.4m5 0h0m4 0h10m5 0h0m4 0h10m5 0h0m4 0h10m5 0h0m4 0h10m5 0h0m4 0h11.3"/><path d="M380.7 289.8h11.4m5 0h0m4 0h10m5 0h0m4 0h10m5 0h0m4 0h10m5 0h0m4 0h10m5 0h0m4 0h11.3m2 38.9h103.8"/><path d="M490.4 326.6h103.8m-103.8-36.8h105.8m-105.8-2.2h105.8"/></g><path d="M594.3 249.4v118.3h-104V249.4h104" class="B C"/><g class="D E F G H I"><path d="M165.3 92.6h11.4m5 0h0m4 0h10m5 0h0m4 0h10m5 0h0m4 0h10m5 0h0m4 0h10m5 0h0m4 0H273m-107.7 2.2H271"/><path d="M165.3 92.6H271m-105.7 39h11.3m5 0h0m4 0h10m5 0h0m4 0h10m5 0h0m4 0h10m5 0h0m4 0h10m5 0h0m4 0H273m-105.7 2.2H273"/><path d="M167.3 131.6H273M165.3 328.7h11.4m5 0h0m4 0h10m5 0h0m4 0h10m5 0h0m4 0h10m5 0h0m4 0h10m5 0h0m4 0H273"/><path d="M165.3 289.8h11.3m5 0h0m4 0h10m5 0h0m4 0h10m5 0h0m4 0h10m5 0h0m4 0h10m5 0h0m4 0H273M57.6 92.6h11.3m5 0h0m4 0h10m5 0h0m4 0h10m5 0h0m4 0h10m5 0h0m4 0h10m5 0h0m4 0h11.4M57.6 94.8h105.7"/><path d="M57.6 92.6h105.7m-105.7 39h11.3m5 0h0m4 0h10m5 0h0m4 0h10m5 0h0m4 0h10m5 0h0m4 0h10m5 0h0m4 0h11.4m-105.7 2.2h105.7"/><path d="M59.6 131.6h105.7M57.6 328.7h11.3m5 0h0m4 0h10m5 0h0m4 0h10m5 0h0m4 0h10m5 0h0m4 0h10m5 0h0m4 0h11.4"/><path d="M57.6 289.8h11.3m5 0h0m4 0h10m5 0h0m4 0h10m5 0h0m4 0h10m5 0h0m4 0h10m5 0h0m4 0h11.4m2-158.4h-4M273 328.7h11.4m5 0h0m4 0h10m5 0h0m4 0h10m5 0h0m4 0h10m5 0h0m4 0h10m5 0h0m4 0h11.3m-105.7 0h103.7M275 326.6h103.7"/><path d="M273 289.8h11.4m5 0h0m4 0h10m5 0h0m4 0h10m5 0h0m4 0h10m5 0h0m4 0h10m5 0h0m4 0h11.3"/><path d="M275 289.8h105.7M275 287.6h105.7m-1.9-79.8v-4.6m0-5h0m0-4v-10m0-5v-8.6"/><path d="M378.8 207.8v-37.2m0 42.9v37.3m1.9-156h105.8m-105.8-2.2h105.8m-103.8 41.2h105.7"/><path d="M382.7 131.6h105.7M382.7 328.7h103.8"/><path d="M382.7 326.6h103.8M377.9 213.5h107.7m-107.7-5.7h107.7m-102.9 82h105.7m-105.7-2.2h105.7m-1.8-79.8v-4.6m0-5h0m0-4v-10m0-5v-8.6"/><path d="M486.6 207.8v-37.2m0 42.9v4.7m0 4.9h0m0 4v10m0 5v8.7"/><path d="M486.6 213.5v37.3m-103.9 0h105.7"/><path d="M382.7 248.6h105.7m0-153.8h105.8m-105.8-2.2h105.8m-103.8 41.2h105.8"/><path d="M490.4 131.6h105.8m-105.8 39h9.5m5 0h0m4 0h10m5 0h0m4 0h10m5 0h0m4 0h10m5 0h0m4 0h10m5 0h0m4 0h9.4"/><path d="M490.4 170.6h103.9M488.4 328.7h11.4m5 0h0m4 0h10m5 0h0m4 0h10m5 0h0m4 0h10m5 0h0m4 0h10m5 0h0m4 0h11.4"/><path d="M488.4 289.8h11.4m5 0h0m4 0h10m5 0h0m4 0h10m5 0h0m4 0h10m5 0h0m4 0h10m5 0h0m4 0h11.4m-1.9-82v-4.6m0-5h0m0-4v-10m0-5v-8.6"/><path d="M594.3 207.8v-37.2"/><path d="M594.3 170.6h0m0 42.9v4.7m0 4.9h0m0 4v10m0 5v8.7m3.8 39.1h-3.9m-105.8-39.1h11.4m5 0h0m4 0h10m5 0h0m4 0h10m5 0h0m4 0h10m5 0h0m4 0h10m5 0h0m4 0h11.4"/><path d="M490.4 250.8h105.8m0 0v-2.2"/><path d="M490.4 248.6h105.8"/></g><path d="M271.1 249.4v118.3H167.2V249.4h103.9m0-77.5H167.2V53.6h103.9v118.3m-107.7 77.5v118.3H59.5V249.4h103.9m215.4 0v118.3H274.9V249.4h103.9" class="B C"/><path d="M378.8 171.9V53.6m0 0H274.9m0 0v118.3m0 0h103.9" class="D E F G H I"/><path d="M486.6 249.4v118.3h-104V249.4h104" class="B C"/><g class="D F G H I"><g class="K"><path d="M486.6 367.7V249.4m-104 118.3h104"/><path d="M382.6 249.4v118.3m104-118.3h-104"/></g><path d="M486.6 171.9V53.6m0 0h-104m0 0v118.3m0 0h104" class="E"/></g><path d="M594.3 171.9h-104V53.6h104v118.3" class="B C"/><path d="M594.3 171.9V53.6m0 0h-104m0 0v118.3m0 0h104" class="D E F G H I"/><path d="M271.1 171.9H167.2V53.6h103.9v118.3" class="B C"/><g class="J"><path d="M270.9 53.6h.2v118.3h-.2z"/><use xlink:href="#F"/><use xlink:href="#F" x="-5.2"/><use xlink:href="#F" x="-10.4"/><use xlink:href="#F" x="-15.6"/><use xlink:href="#F" x="-20.8"/><use xlink:href="#F" x="-26"/><use xlink:href="#F" x="-31.2"/><use xlink:href="#F" x="-36.4"/><use xlink:href="#F" x="-41.6"/><use xlink:href="#F" x="-46.8"/><use xlink:href="#F" x="-52"/><use xlink:href="#F" x="-57.2"/><use xlink:href="#F" x="-62.4"/><use xlink:href="#F" x="-67.6"/><use xlink:href="#F" x="-72.8"/><use xlink:href="#F" x="-78"/><use xlink:href="#F" x="-83.2"/><use xlink:href="#F" x="-88.4"/><use xlink:href="#F" x="-93.6"/><path d="M167.2 53.6h.2v118.3h-.2z"/></g><path d="M163.4 367.7H59.5V249.4h103.9v118.3" class="B C"/><g class="J"><path d="M163.2 249.4h.3v118.3h-.3z"/><use xlink:href="#F" x="-107.7" y="195.8"/><use xlink:href="#F" x="-112.9" y="195.8"/><use xlink:href="#F" x="-118.1" y="195.8"/><use xlink:href="#F" x="-123.3" y="195.8"/><use xlink:href="#F" x="-128.5" y="195.8"/><use xlink:href="#F" x="-133.7" y="195.8"/><use xlink:href="#F" x="-138.9" y="195.8"/><use xlink:href="#F" x="-144.1" y="195.8"/><use xlink:href="#F" x="-149.3" y="195.8"/><use xlink:href="#F" x="-154.5" y="195.8"/><use xlink:href="#F" x="-159.7" y="195.8"/><use xlink:href="#F" x="-164.9" y="195.8"/><use xlink:href="#F" x="-170.1" y="195.8"/><use xlink:href="#F" x="-175.3" y="195.8"/><use xlink:href="#F" x="-180.5" y="195.8"/><path d="M80 249.4h.5v118.3H80z"/><use xlink:href="#F" x="-190.9" y="195.8"/><use xlink:href="#F" x="-196.1" y="195.8"/><use xlink:href="#F" x="-201.3" y="195.8"/><path d="M59.5 249.4h.2v118.3h-.2z"/></g><path d="M271.1 367.7H167.2V249.4h103.9v118.3" class="B C"/><g class="J"><path d="M270.9 249.4h.2v118.3h-.2z"/><use xlink:href="#F" y="195.8"/><use xlink:href="#F" x="-5.2" y="195.8"/><use xlink:href="#F" x="-10.4" y="195.8"/><use xlink:href="#F" x="-15.6" y="195.8"/><use xlink:href="#F" x="-20.8" y="195.8"/><use xlink:href="#F" x="-26" y="195.8"/><use xlink:href="#F" x="-31.2" y="195.8"/><use xlink:href="#F" x="-36.4" y="195.8"/><use xlink:href="#F" x="-41.6" y="195.8"/><use xlink:href="#F" x="-46.8" y="195.8"/><use xlink:href="#F" x="-52" y="195.8"/><use xlink:href="#F" x="-57.2" y="195.8"/><use xlink:href="#F" x="-62.4" y="195.8"/><use xlink:href="#F" x="-67.6" y="195.8"/><use xlink:href="#F" x="-72.8" y="195.8"/><use xlink:href="#F" x="-78" y="195.8"/><use xlink:href="#F" x="-83.2" y="195.8"/><use xlink:href="#F" x="-88.4" y="195.8"/><use xlink:href="#F" x="-93.6" y="195.8"/><path d="M167.2 249.4h.2v118.3h-.2z"/></g><path d="M378.8 367.7H274.9V249.4h103.9v118.3" class="B C"/><g class="J"><path d="M378.6 249.4h.2v118.3h-.2z"/><use xlink:href="#F" x="107.7" y="195.8"/><use xlink:href="#F" x="102.5" y="195.8"/><use xlink:href="#F" x="97.3" y="195.8"/><use xlink:href="#F" x="92.1" y="195.8"/><use xlink:href="#F" x="86.9" y="195.8"/><use xlink:href="#F" x="81.7" y="195.8"/><use xlink:href="#F" x="76.5" y="195.8"/><use xlink:href="#F" x="71.3" y="195.8"/><use xlink:href="#F" x="66.1" y="195.8"/><use xlink:href="#F" x="60.9" y="195.8"/><use xlink:href="#F" x="55.7" y="195.8"/><use xlink:href="#F" x="50.5" y="195.8"/><use xlink:href="#F" x="45.3" y="195.8"/><use xlink:href="#F" x="40.1" y="195.8"/><use xlink:href="#F" x="34.9" y="195.8"/><use xlink:href="#F" x="29.7" y="195.8"/><use xlink:href="#F" x="24.5" y="195.8"/><use xlink:href="#F" x="19.3" y="195.8"/><use xlink:href="#F" x="14.1" y="195.8"/><path d="M274.9 249.4h.3v118.3h-.3z"/></g><path d="M486.6 367.7h-104V249.4h104v118.3" class="B C"/><g class="J"><path d="M486.3 249.4h.2v118.3h-.2z"/><use xlink:href="#F" x="215.4" y="195.8"/><use xlink:href="#F" x="210.2" y="195.8"/><use xlink:href="#F" x="205" y="195.8"/><use xlink:href="#F" x="199.8" y="195.8"/><use xlink:href="#F" x="194.6" y="195.8"/><use xlink:href="#F" x="189.4" y="195.8"/><use xlink:href="#F" x="184.2" y="195.8"/><use xlink:href="#F" x="179" y="195.8"/><use xlink:href="#F" x="173.8" y="195.8"/><use xlink:href="#F" x="168.6" y="195.8"/><use xlink:href="#F" x="163.4" y="195.8"/><use xlink:href="#F" x="158.2" y="195.8"/><use xlink:href="#F" x="153" y="195.8"/><use xlink:href="#F" x="147.9" y="195.8"/><use xlink:href="#F" x="142.7" y="195.8"/><use xlink:href="#F" x="137.5" y="195.8"/><use xlink:href="#F" x="132.3" y="195.8"/><use xlink:href="#F" x="127.1" y="195.8"/><use xlink:href="#F" x="121.9" y="195.8"/><path d="M382.6 249.4h.2v118.3h-.2z"/></g><path d="M594.3 367.7h-104V249.4h104v118.3" class="B C"/><g class="J"><path d="M594 249.4h.2v118.3h-.2z"/><use xlink:href="#F" x="323.1" y="195.8"/><use xlink:href="#F" x="317.9" y="195.8"/><use xlink:href="#F" x="312.7" y="195.8"/><use xlink:href="#F" x="307.5" y="195.8"/><use xlink:href="#F" x="302.3" y="195.8"/><use xlink:href="#F" x="297.1" y="195.8"/><use xlink:href="#F" x="291.9" y="195.8"/><use xlink:href="#F" x="286.7" y="195.8"/><use xlink:href="#F" x="281.6" y="195.8"/><use xlink:href="#F" x="276.4" y="195.8"/><use xlink:href="#F" x="271.2" y="195.8"/><use xlink:href="#F" x="266" y="195.8"/><use xlink:href="#F" x="260.8" y="195.8"/><use xlink:href="#F" x="255.6" y="195.8"/><use xlink:href="#F" x="250.4" y="195.8"/><use xlink:href="#F" x="245.2" y="195.8"/><use xlink:href="#F" x="240" y="195.8"/><use xlink:href="#F" x="234.8" y="195.8"/><use xlink:href="#F" x="229.6" y="195.8"/><path d="M490.3 249.4h.2v118.3h-.2z"/></g><g class="D E F G H I"><path d="M165.3 94.8v-2.2m2 78h9.4m5 0h0m4 0h10m5 0h0m4 0h10m5 0h0m4 0h10m5 0h0m4 0h10m5 0h0m4 0h9.4m-103.8 2.1h102.4"/><path d="M167.3 170.6h103.8m-103.8 2.1v-2.1M269 209.4H168.1m100.9 2.5H168.1"/><path d="M168.1 209.4v2.5m100.9-2.5v2.5m-106.5 1.6h107.7m-107.7-5.7h107.7M165.3 53.6h11.4m5 0h0m4 0h10m5 0h0m4 0h10m5 0h0m4 0h10m5 0h0m4 0h10m5 0h0m4 0H273"/><path d="M165.3 53.6H273M165.3 367.7h11.4m5 0h0m4 0h10m5 0h0m4 0h10m5 0h0m4 0h10m5 0h0m4 0h10m5 0h0m4 0H273"/><path d="M165.3 367.7H273m-107.7-2.2H273m-2.4-78.2l2-1.4M165.7 135.4l2.1-1.4M275 210.7v-76.9m0-2.2V53.7"/><path d="M271 92.6V53.7m0 157V94.8m4-41.1h-4m0 157v115.9m0 2.1v38.8m4-38.8v38.8m0-77.7v36.8m0-75.8v36.8m0-76.9v37.9m-4 118.9h4"/><path d="M271.1 207.8v-4.6m0-5h0m0-4v-10m0-5v-8.6"/><path d="M271.1 207.8v-37.2m-1.4 37.2v-35.1"/><path d="M271.1 170.6h0m0 37.2h-1.4m1.4 5.7v4.7m0 4.9h0m0 4v10m0 5v8.7m-1.4-37.3v37.3"/><path d="M271.1 213.5v37.3m-1.4 0h1.4"/><path d="M269.7 213.5h1.4m-.9-4.1h-8.5m-5 0h0m-4 0h-10m-5 0h0m-4 0h-10m-5 0h0m-4 0h-10m-5 0h0m-4 0h-10m-5 0h0m-4 0h-8.6m102.1-1.4H168.1"/><path d="M168.1 208v1.4m102.1 0H168.1"/><path d="M270.2 208v1.4m0 2.5h-8.5m-5 0h0m-4 0h-10m-5 0h0m-4 0h-10m-5 0h0m-4 0h-10m-5 0h0m-4 0h-10m-5 0h0m-4 0h-8.6"/><path d="M270.2 211.9H168.1m0 0v1.4m102.1 0H168.1"/><path d="M270.2 211.9v1.4m4.8 76.6V131.4m0 0h-4m0 158.5V131.4m4 158.5h-4m-105.7-39.1h11.3m5 0h0m4 0h10m5 0h0m4 0h10m5 0h0m4 0h10m5 0h0m4 0h10m5 0h0"/><path d="M261.6 250.8H273"/><path d="M167.3 250.8H273m-105.7-2.2H273m-109.7 41.3V131.4M273 92.6h11.4m5 0h0m4 0h10m5 0h0m4 0h10m5 0h0m4 0h10m5 0h0m4 0h10m5 0h0m4 0h11.3M273 94.8h105.7"/><path d="M273 92.6h105.7m-105.7 39h11.4m5 0h0m4 0h10m5 0h0m4 0h10m5 0h0m4 0h10m5 0h0m4 0h10m5 0h0m4 0h11.3M275 133.8h105.7"/><path d="M275 131.6h105.7m-1.9 81.9v4.7m0 4.9h0m0 4v10m0 5v8.7m3.9 39.1V131.4m0 158.5h-4M273 250.8h11.4m5 0h0m4 0h10m5 0h0m4 0h10m5 0h0m4 0h10m5 0h0m4 0h10m5 0h0m4 0h11.3"/><path d="M275 250.8h105.7M275 248.6h105.7m0 2.2h11.4m5 0h0m4 0h10m5 0h0m4 0h10m5 0h0m4 0h10m5 0h0m4 0h10m5 0h0m4 0h11.3m0-158.2h11.4m5 0h0m4 0h10m5 0h0m4 0h10m5 0h0m4 0h10m5 0h0m4 0h10m5 0h0m4 0h11.4m-107.8 39h11.4m5 0h0m4 0h10m5 0h0m4 0h10m5 0h0m4 0h10m5 0h0m4 0h10m5 0h0m4 0h11.4m-110.6 81.9h107.7m-107.7-5.7h107.7m1 5.7v37.3m-1.4-37.3h1.4m-324.1-42.7H168.1m0 0v38.6m0 0h102.1"/><path d="M270.2 209.4v-38.6m0 41.1H168.1m0 0v38.7m0 0h102.1"/><path d="M270.2 250.6v-38.7"/><path d="M271.1 249.4H167.2m0 0v118.3m0 0h103.9"/><path d="M271.1 367.7V249.4m0-77.5V53.6m0 0H167.2m0 0v118.3m0 0h103.9"/></g><path d="M163.4 171.9H59.5V53.6h103.9v118.3" class="B C"/><g class="J"><path d="M163.2 53.6h.3v118.3h-.3z"/><use xlink:href="#F" x="-107.7"/><use xlink:href="#F" x="-112.9"/><use xlink:href="#F" x="-118.1"/><use xlink:href="#F" x="-123.3"/><use xlink:href="#F" x="-128.5"/><use xlink:href="#F" x="-133.7"/><use xlink:href="#F" x="-138.9"/><use xlink:href="#F" x="-144.1"/><use xlink:href="#F" x="-149.3"/><use xlink:href="#F" x="-154.5"/><use xlink:href="#F" x="-159.7"/><use xlink:href="#F" x="-164.9"/><use xlink:href="#F" x="-170.1"/><use xlink:href="#F" x="-175.3"/><use xlink:href="#F" x="-180.5"/><path d="M80 53.6h.5v118.3H80z"/><use xlink:href="#F" x="-190.9"/><use xlink:href="#F" x="-196.1"/><use xlink:href="#F" x="-201.3"/><path d="M59.5 53.6h.2v118.3h-.2z"/></g><path d="M378.8 249.4H274.9m0 0v118.3m0 0h103.9m0 0V249.4" class="D E F G H I"/><path d="M378.8 171.9H274.9V53.6h103.9v118.3" class="B C"/><g class="D E F G H I"><path d="M486.6 249.4h-104m0 0v118.3m0 0h104"/><path d="M486.6 367.7V249.4"/></g><path d="M486.6 171.9h-104V53.6h104v118.3" class="B C"/><g class="D F G H I"><g class="K"><path d="M382.6 171.9h104m-104-118.3v118.3"/><path d="M486.6 53.6h-104m104 118.3V53.6"/></g><g class="E"><path d="M594.3 249.4h-104m0 0v118.3m0 0h104"/><path d="M594.3 367.7V249.4"/></g></g><path d="M378.8 171.9H274.9V53.6h103.9v118.3" class="B C"/><g class="J"><path d="M378.6 53.6h.2v118.3h-.2z"/><use xlink:href="#F" x="107.7"/><use xlink:href="#F" x="102.5"/><use xlink:href="#F" x="97.3"/><use xlink:href="#F" x="92.1"/><use xlink:href="#F" x="86.9"/><use xlink:href="#F" x="81.7"/><use xlink:href="#F" x="76.5"/><use xlink:href="#F" x="71.3"/><use xlink:href="#F" x="66.1"/><use xlink:href="#F" x="60.9"/><use xlink:href="#F" x="55.7"/><use xlink:href="#F" x="50.5"/><use xlink:href="#F" x="45.3"/><use xlink:href="#F" x="40.1"/><use xlink:href="#F" x="34.9"/><use xlink:href="#F" x="29.7"/><use xlink:href="#F" x="24.5"/><use xlink:href="#F" x="19.3"/><use xlink:href="#F" x="14.1"/><path d="M274.9 53.6h.3v118.3h-.3z"/></g><path d="M486.6 171.9h-104V53.6h104v118.3" class="B C"/><g class="J"><path d="M486.3 53.6h.2v118.3h-.2z"/><use xlink:href="#F" x="215.4"/><use xlink:href="#F" x="210.2"/><use xlink:href="#F" x="205"/><use xlink:href="#F" x="199.8"/><use xlink:href="#F" x="194.6"/><use xlink:href="#F" x="189.4"/><use xlink:href="#F" x="184.2"/><use xlink:href="#F" x="179"/><use xlink:href="#F" x="173.8"/><use xlink:href="#F" x="168.6"/><use xlink:href="#F" x="163.4"/><use xlink:href="#F" x="158.2"/><use xlink:href="#F" x="153"/><use xlink:href="#F" x="147.9"/><use xlink:href="#F" x="142.7"/><use xlink:href="#F" x="137.5"/><use xlink:href="#F" x="132.3"/><use xlink:href="#F" x="127.1"/><use xlink:href="#F" x="121.9"/><path d="M382.6 53.6h.2v118.3h-.2z"/></g><path d="M594.3 171.9h-104V53.6h104v118.3" class="B C"/><g class="J"><path d="M594 53.6h.2v118.3h-.2z"/><use xlink:href="#F" x="323.1"/><use xlink:href="#F" x="317.9"/><use xlink:href="#F" x="312.7"/><use xlink:href="#F" x="307.5"/><use xlink:href="#F" x="302.3"/><use xlink:href="#F" x="297.1"/><use xlink:href="#F" x="291.9"/><use xlink:href="#F" x="286.7"/><use xlink:href="#F" x="281.6"/><use xlink:href="#F" x="276.4"/><use xlink:href="#F" x="271.2"/><use xlink:href="#F" x="266"/><use xlink:href="#F" x="260.8"/><use xlink:href="#F" x="255.6"/><use xlink:href="#F" x="250.4"/><use xlink:href="#F" x="245.2"/><use xlink:href="#F" x="240"/><use xlink:href="#F" x="234.8"/><use xlink:href="#F" x="229.6"/><path d="M490.3 53.6h.2v118.3h-.2z"/></g><path d="M163.3 131.3h4v158.6h-4V131.3" class="B C"/><g class="D E F G H I"><path d="M163.3 131.3h4m0 0v158.6m0 0h-4"/><path d="M163.3 289.9V131.3"/></g><path d="M271 131.4h3.9L275 290h-4V131.4" class="B C"/><g class="D E F G H I"><path d="M271 131.4h3.9m0 0L275 290m0 0h-4"/><path d="M271 290V131.4"/></g><path d="M378.7 131.4h4V290h-4V131.4" class="B C"/><g class="D E F G H I"><path d="M378.7 131.4h4m0 0V290m0 0h-4"/><path d="M378.7 290V131.4"/></g><path d="M486.5 131.4h3.9V290h-3.9V131.4" class="B C"/><g class="D E F G H I"><path d="M486.5 131.4h3.9m0 0V290m0 0h-3.9"/><path d="M486.5 290V131.4"/></g><path d="M594.2 131.4h3.9V290h-3.9V131.4" class="B C"/><g class="D E F G H I"><path d="M594.2 131.4h3.9m0 0V290m0 0h-3.9"/><path d="M594.2 290V131.4M165.3 55.8H273M59.6 210.7v-76.9m0-2.2V53.7m-4 157v-157m4 0h-4m0 157v156.8m4-38.8v38.8m0-77.7v36.8m0-75.8v36.8m0-76.9v37.9m-4 118.9h4"/><path d="M59.6 289.9V131.4m0 0h-4m0 158.5V131.4m4 158.5h-4m2-195.1v-2.2m2 78H69m5 0h0m4 0h10m5 0h0m4 0h10m5 0h0m4 0h10m5 0h0m4 0h10m5 0h0m4 0h9.4m-103.8 2.1H162"/><path d="M59.6 170.6h103.8m-103.8 2.1v-2.1m101.6 38.8H60.4m100.8 2.5H60.4"/><path d="M60.4 209.4v2.5m100.8-2.5v2.5m-106.5 1.6h107.8m-107.8-5.7h107.8"/><path d="M54.7 213.5v-5.7m2.9-154.2h11.3m5 0h0m4 0h10m5 0h0m4 0h10m5 0h0m4 0h10m5 0h0m4 0h10m5 0h0m4 0h11.4"/><path d="M57.6 53.6h107.7M57.6 55.8v-2.2m0 314.1h11.3m5 0h0m4 0h10m5 0h0m4 0h10m5 0h0m4 0h10m5 0h0m4 0h10m5 0h0m4 0h11.4"/><path d="M57.6 367.7h107.7m-107.7-2.2h107.7"/><path d="M57.6 367.7v-2.2m.4-230.1l51.9 75.2m52.9 76.7l2.1-1.4M58 135.4l2-1.4m49.9 76.6L58 285.8m0 0l2 1.5"/><path d="M162.8 134l2.1 1.4m2.4 75.3v-76.9m0-2.2V53.7"/><path d="M163.3 92.6V53.7m0 157V94.8m4-41.1h-4m0 157v115.9m0 2.1v38.8m4-38.8v38.8m0-77.7v36.8m0-75.8v36.8m0-76.9v37.9m-4 118.9h4"/><path d="M163.4 207.8v-4.6m0-5h0m0-4v-10m0-5v-8.6"/><path d="M163.4 207.8v-37.2m-1.4 37.2v-35.1"/><path d="M163.4 170.6h0m0 37.2H162m1.4 5.7v4.7m0 4.9h0m0 4v10m0 5v8.7m-1.4-37.3v37.3"/><path d="M163.4 213.5v37.3m-1.4 0h1.4"/><path d="M162 213.5h1.4m-.9-4.1h-8.6m-5 0h0m-4 0h-10m-5 0h0m-4 0h-10m-5 0h0m-4 0h-10m-5 0h0m-4 0h-10m-5 0h0m-4 0h-8.5m102.1-1.4H60.4"/><path d="M60.4 208v1.4m102.1 0H60.4"/><path d="M162.5 208v1.4m0 2.5h-8.6m-5 0h0m-4 0h-10m-5 0h0m-4 0h-10m-5 0h0m-4 0h-10m-5 0h0m-4 0h-10m-5 0h0m-4 0h-8.5"/><path d="M162.5 211.9H60.4m0 0v1.4m102.1 0H60.4"/><path d="M162.5 211.9v1.4m4.8 76.6V131.4m0 158.5h-4M57.6 250.8h11.3m5 0h0m4 0h10m5 0h0m4 0h10m5 0h0m4 0h10m5 0h0m4 0h10m5 0h0m4 0h11.4"/><path d="M59.6 250.8h105.7m-105.7-2.2h105.7M270.6 134l-51.4 74.4m-1.6 2.2l-51.9 75.2m0 0l2 1.5m51.5-74.5l-51.5 74.5m104.9-151.9l-51.9 75.2"/><path d="M270.6 134l2 1.4m.4-40.6v-2.2m2 78h9.4m5 0h0m4 0h10m5 0h0m4 0h10m5 0h0m4 0h10m5 0h0m4 0h10m5 0h0m4 0h9.4M275 172.7h102.4"/><path d="M275 170.6h103.8M275 172.7v-2.1m101.7 38.8H275.9m100.8 2.5H275.9"/><path d="M275.9 209.4v2.5m100.8-2.5v2.5m-106.5 1.6h107.7m-107.7-5.7h107.7M273 53.6h11.4m5 0h0m4 0h10m5 0h0m4 0h10m5 0h0m4 0h10m5 0h0m4 0h10m5 0h0m4 0h11.3M273 55.8h107.7"/><path d="M273 53.6h107.7M273 367.7h11.4m5 0h0m4 0h10m5 0h0m4 0h10m5 0h0m4 0h10m5 0h0m4 0h10m5 0h0m4 0h11.3"/><path d="M273 367.7h107.7M273 365.5h107.7m-2.4-78.2l2.1-1.4m-107-150.5l2.1-1.4m-2.1 151.8l2.1 1.5"/><path d="M378.3 134l2 1.4m2.4 75.3v-76.9m0-2.2V53.7"/><path d="M378.7 92.6V53.7m0 157V94.8m4-41.1h-4m0 157v115.9m0 2.1v38.8m4-38.8v38.8m0-77.7v36.8m0-75.8v36.8m0-76.9v37.9m-4 118.9h4m-5.3-159.7v-35.1"/><path d="M378.8 170.6h0m0 37.2h-1.4m0 5.7v37.3m0 0h1.4"/><path d="M377.4 213.5h1.4m-.9-4.1h-8.5m-5 0h0m-4 0h-10m-5 0h0m-4 0h-10m-5 0h0m-4 0h-10m-5 0h0m-4 0h-10m-5 0h0m-4 0h-8.5m102-1.4h-102"/><path d="M275.9 208v1.4m102 0h-102"/><path d="M377.9 208v1.4m0 2.5h-8.5m-5 0h0m-4 0h-10m-5 0h0m-4 0h-10m-5 0h0m-4 0h-10m-5 0h0m-4 0h-10m-5 0h0m-4 0h-8.5"/><path d="M377.9 211.9h-102m0 0v1.4m102 0h-102"/><path d="M377.9 211.9v1.4m4.8-81.9h-4m0 158.5V131.4m2-36.6v-2.2m2 78h9.4m5 0h0m4 0h10m5 0h0m4 0h10m5 0h0m4 0h10m5 0h0m4 0h10m5 0h0m4 0h9.5m-103.9 2.1h102.4"/><path d="M382.7 170.6h103.9m-103.9 2.1v-2.1m101.7 38.8H383.6m100.8 2.5H383.6"/><path d="M383.6 209.4v2.5m100.8-2.5v2.5M380.7 53.6h11.4m5 0h0m4 0h10m5 0h0m4 0h10m5 0h0m4 0h10m5 0h0m4 0h10m5 0h0m4 0h11.3m-107.7 2.2h107.7"/><path d="M380.7 53.6h107.7M380.7 367.7h11.4m5 0h0m4 0h10m5 0h0m4 0h10m5 0h0m4 0h10m5 0h0m4 0h10m5 0h0m4 0h11.3"/><path d="M380.7 367.7h107.7m-107.7-2.2h107.7m-2.4-78.2l2.1-1.4m-107-150.5l2.1-1.4m-2.1 151.8l2.1 1.5"/><path d="M486 134l2.1 1.4m2.3 75.3v-76.9m0-2.2V53.7"/><path d="M486.5 92.6V53.7m0 157V94.8m3.9-41.1h-3.9m0 157v115.9m0 2.1v38.8m3.9-38.8v38.8m0-77.7v36.8m0-75.8v36.8m0-76.9v37.9m-3.9 118.9h3.9m-5.3-159.7v-35.1"/><path d="M486.6 170.6h0m0 37.2h-1.5m0 5.7v37.3m0 0h1.5"/><path d="M485.1 213.5h1.5m-1-4.1h-8.5m-5 0h0m-4 0h-10m-5 0h0m-4 0h-10m-5 0h0m-4 0h-10m-5 0h0m-4 0h-10m-5 0h0m-4 0h-8.5m102-1.4h-102"/><path d="M383.6 208v1.4m102 0h-102"/><path d="M485.6 208v1.4m0 2.5h-8.5m-5 0h0m-4 0h-10m-5 0h0m-4 0h-10m-5 0h0m-4 0h-10m-5 0h0m-4 0h-10m-5 0h0m-4 0h-8.5"/><path d="M485.6 211.9h-102m0 0v1.4m102 0h-102"/><path d="M485.6 211.9v1.4m4.8 76.6V131.4m0 0h-3.9m0 158.5V131.4m3.9 158.5h-3.9m1.9-195.1v-2.2m2 80.1h102.5"/><path d="M490.4 172.7v-2.1m101.7 38.8H491.3m100.8 2.5H491.3"/><path d="M491.3 209.4v2.5m100.8-2.5v2.5m1.2 1.6v-5.7M488.4 53.6h11.4m5 0h0m4 0h10m5 0h0m4 0h10m5 0h0m4 0h10m5 0h0m4 0h10m5 0h0m4 0h11.4m-107.8 2.2h107.8m0 0v-2.2"/><path d="M488.4 53.6h107.8M488.4 367.7h11.4m5 0h0m4 0h10m5 0h0m4 0h10m5 0h0m4 0h10m5 0h0m4 0h10m5 0h0m4 0h11.4"/><path d="M488.4 367.7h107.8m0 0v-2.2"/><path d="M488.4 365.5h107.8M488.8 135.4l2.1-1.4"/><path d="M488.8 285.8l2.1 1.5M593.7 134l2.1 1.4m2.3 75.3v-157"/><path d="M594.2 92.6V53.7m0 157V94.8m3.9-41.1h-3.9m0 157v115.9m0 2.1v38.8m3.9-156.8v156.8m-3.9 0h3.9m-5.2-159.7v-35.1"/><path d="M594.3 207.8h-1.4m0 5.7v37.3m0 0h1.4m-1-41.4h-8.5m-5 0h0m-4 0h-10m-5 0h0m-4 0h-10m-5 0h0m-4 0h-10m-5 0h0m-4 0h-10m-5 0h0m-4 0h-8.5m102-1.4h-102"/><path d="M491.3 208v1.4m102 0h-102"/><path d="M593.3 208v1.4m0 2.5h-8.5m-5 0h0m-4 0h-10m-5 0h0m-4 0h-10m-5 0h0m-4 0h-10m-5 0h0m-4 0h-10m-5 0h0m-4 0h-8.5"/><path d="M593.3 211.9h-102m0 0v1.4m102 0h-102"/><path d="M593.3 211.9v1.4m4.8 76.6V131.4m0 0h-3.9m0 158.5V131.4m-431.7 39.4H60.4m0 0v38.6m0 0h102.1"/><path d="M162.5 209.4v-38.6m0 41.1H60.4m0 0v38.7m0 0h102.1"/><path d="M162.5 250.6v-38.7"/><path d="M163.4 249.4H59.5m0 0v118.3m0 0h103.9"/><path d="M163.4 367.7V249.4m0-77.5V53.6m0 0H59.5m0 0v118.3m0 0h103.9m214.5-1.1h-102m0 0v38.6m0 0h102"/><path d="M377.9 209.4v-38.6m0 41.1h-102m0 0v38.7m0 0h102"/><path d="M377.9 250.6v-38.7m107.7-41.1h-102m0 0v38.6m0 0h102"/><path d="M485.6 209.4v-38.6m0 41.1h-102m0 0v38.7m0 0h102"/><path d="M485.6 250.6v-38.7m107.7-41.1h-102m0 0v38.6m0 0h102"/><path d="M593.3 209.4v-38.6m0 41.1h-102m0 0v38.7m0 0h102"/><path d="M593.3 250.6v-38.7"/></g><path d="M58 135.4l2-1.4 51.4 74.4 51.4-74.4 2.1 1.4-51.9 75.2 51.9 75.3-2.1 1.4-51.4-74.5L60 287.3l-2-1.5 51.9-75.2L58 135.4" class="B C"/><g class="D E F G H I"><path d="M58 135.4l2-1.4m0 0l51.4 74.4m0 0l51.4-74.4m0 0l2.1 1.4m0 0L113 210.6m0 0l51.9 75.3m0 0l-2.1 1.4m0 0l-51.4-74.5m0 0L60 287.3m0 0l-2-1.5"/><path d="M58 285.8l51.9-75.2m0 0L58 135.4"/></g><path d="M55.6 131.4h3.9v158.5h-3.9V131.4" class="B C"/><g class="D E F G H I"><path d="M55.6 131.4h3.9m0 0v158.5m0 0h-3.9"/><path d="M55.6 289.9V131.4"/></g><path d="M165.6 135.3l2.1-1.4 51.4 74.4 51.4-74.4 2.2 1.5-52 75.2 51.9 75.2-2.1 1.4-51.3-74.4-51.4 74.4-2.2-1.4 52-75.2-52-75.3" class="B C"/><g class="D E F G H I"><path d="M165.6 135.3l2.1-1.4m0 0l51.4 74.4m0 0l51.4-74.4m0 0l2.2 1.5m0 0l-52 75.2m0 0l51.9 75.2m0 0l-2.1 1.4m0 0l-51.3-74.4m0 0l-51.4 74.4m0 0l-2.2-1.4"/><path d="M165.6 285.8l52-75.2m0 0l-52-75.3"/></g><path d="M273.4 135.4l2.1-1.4 51.4 74.4 51.4-74.4 2 1.4-51.9 75.2 52 75.3-2.1 1.4-51.4-74.5-51.4 74.5-2.1-1.5 51.9-75.2-51.9-75.2" class="B C"/><g class="D E F G H I"><path d="M273.4 135.4l2.1-1.4m0 0l51.4 74.4m0 0l51.4-74.4m0 0l2 1.4m0 0l-51.9 75.2m0 0l52 75.3m0 0l-2.1 1.4m0 0l-51.4-74.5m0 0l-51.4 74.5m0 0l-2.1-1.5"/><path d="M273.4 285.8l51.9-75.2m0 0l-51.9-75.2"/></g><path d="M381.1 135.4l2.1-1.4 51.4 74.4L486 134l2.1 1.4-52 75.2 52 75.3-2.1 1.4-51.4-74.5-51.4 74.5-2.1-1.5 52-75.2-52-75.2" class="B C"/><g class="D E F G H I"><path d="M381.1 135.4l2.1-1.4m0 0l51.4 74.4m0 0L486 134m0 0l2.1 1.4m0 0l-52 75.2m0 0l52 75.3m0 0l-2.1 1.4m0 0l-51.4-74.5m0 0l-51.4 74.5m0 0l-2.1-1.5"/><path d="M381.1 285.8l52-75.2m0 0l-52-75.2"/></g><path d="M488.8 135.4l2.1-1.4 51.4 74.4 51.4-74.4 2.1 1.4-52 75.2 52 75.3-2.1 1.4-51.4-74.5-51.4 74.5-2.1-1.5 52-75.2-52-75.2" class="B C"/><g class="D E F G H I"><path d="M488.8 135.4l2.1-1.4m0 0l51.4 74.4m0 0l51.4-74.4m0 0l2.1 1.4m0 0l-52 75.2m0 0l52 75.3m0 0l-2.1 1.4m0 0l-51.4-74.5m0 0l-51.4 74.5m0 0l-2.1-1.5"/><path d="M488.8 285.8l52-75.2m0 0l-52-75.2m-323.1 0l51.9 75.2m1.6 2.2l51.4 74.5m-49.9-76.7l51.9 75.3M167.8 134l51.4 74.4M57.6 55.8h107.7m-53.9 157l51.4 74.5M113 210.6l51.9 75.3M60 134l51.4 74.4m51.4-74.4l-51.4 74.4m0 4.4L60 287.3m104.9-151.9L113 210.6m160.4-75.2l51.9 75.2m1.6 2.2l51.4 74.5m-49.9-76.7l52 75.3"/><path d="M275.5 134l51.4 74.4m51.4-74.4l-51.4 74.4m-1.6 2.2l-51.9 75.2m53.5-73l-51.4 74.5m104.8-151.9l-51.9 75.2m52.7-75.2l52 75.2m1.5 2.2l51.4 74.5m-49.9-76.7l52 75.3"/><path d="M383.2 134l51.4 74.4M486 134l-51.4 74.4m-1.5 2.2l-52 75.2m53.5-73l-51.4 74.5m104.9-151.9l-52 75.2m52.7-75.2l52 75.2m1.5 2.2l51.4 74.5m0 0l2.1-1.4"/><path d="M543.8 210.6l52 75.3M490.9 134l51.4 74.4"/><path d="M593.7 134l-51.4 74.4m-1.5 2.2l-52 75.2m53.5-73l-51.4 74.5m104.9-151.9l-52 75.2"/></g><defs ><path id="B" d="M274.2 288.6v-.2l-.1-.2-.1-.2-.2-.2-.2-.1-.2-.1-.2-.1h-.2-.2l-.2.1-.2.1-.2.2-.1.2-.1.2v.2.2.2l.1.2.1.2.2.2.2.1.2.1h.2.2l.2-.1.2-.1.2-.1.2-.2.1-.2.1-.2v-.2m.1 0v.3l-.1.2-.1.2-.2.2-.2.2-.2.1-.2.1h-.3-.3l-.2-.1-.2-.1-.2-.2-.1-.2-.1-.2-.1-.2v-.3l.1-.2.1-.2.1-.2.2-.2.2-.1.2-.1h.3.3l.2.1.2.1.2.2.2.2.2.4"/><path id="C" d="M267.8 210.7v.2l.1.2.1.2.1.2.2.1.2.1.2.1h.2.2l.2-.1.2-.1.2-.2.1-.2.1-.2v-.2-.2-.2l-.1-.2-.1-.2-.2-.2-.2-.1-.2-.1h-.2-.2l-.2.1-.2.1-.2.1-.1.2-.1.2-.1.2v.2m-.1 0v-.3l.1-.2.1-.2.2-.2.2-.2.2-.1.2-.1h.3.3l.2.1.2.1.2.2.1.2.1.2.1.2v.3l-.1.2-.1.2-.1.2-.2.2-.2.1-.2.1h-.3-.3l-.2-.1-.2-.1-.2-.2-.2-.2-.2-.4"/><path id="D" d="M483.3 210.7v.2l.1.2.1.2.1.2.2.1.2.1.2.1h.2.2l.2-.1.2-.1.2-.2.1-.2.1-.2v-.2-.2-.2l-.1-.2-.1-.2-.2-.2-.2-.1-.2-.1h-.2-.2l-.2.1-.2.1-.2.1-.1.2-.1.2-.1.2v.2m-.2 0v-.3l.1-.2.1-.2.2-.2.2-.2.2-.1.2-.1h.3.3l.2.1.2.1.2.2.1.2.1.2.1.2v.3l-.1.2-.1.2-.1.2-.2.2-.2.1-.2.1h-.3-.3l-.2-.1-.2-.1-.2-.2-.2-.2-.2-.4"/><path id="E" d="M166.4 132.7v-.2l-.1-.2-.1-.2-.2-.2-.2-.1-.2-.1-.2-.1h-.2-.2l-.2.1-.2.1-.2.2-.1.2-.1.2v.2.2.2l.1.2.1.2.2.2.2.1.2.1h.2.2l.2-.1.2-.1.2-.1.2-.2.1-.2.1-.2v-.2m.2 0v.3l-.1.2-.1.2-.2.2-.2.2-.2.1-.2.1h-.3-.3l-.2-.1-.2-.1-.2-.2-.1-.2-.1-.2-.1-.2v-.3l.1-.2.1-.2.1-.2.2-.2.2-.1.2-.1h.3.3l.2.1.2.1.2.2.2.2.2.4"/><path id="F" d="M265.7 53.6h.5v118.3h-.5z"/></defs></svg>