<svg xmlns="http://www.w3.org/2000/svg" xmlns:xlink="http://www.w3.org/1999/xlink" baseProfile="tiny" viewBox="0 0 890.5 728.5" overflow="visible" xmlns:v="https://vecta.io/nano"><style><![CDATA[.B{stroke-linecap:round}.C{stroke-linejoin:round}.D{stroke-width:.284}.E{fill-rule:evenodd}.F{fill:none}.G{fill:#fff}.H{stroke-width:.25}.I{stroke-width:2.835}]]></style><g stroke="#000" stroke-miterlimit="10"><path d="M286.1 296.1H103.3v-21.2h182.8v21.2" class="E G"/><g class="F B C"><g class="D"><path d="M111.3 274.9l23.2 21.2m39.7-21.2l23.2 21.2m39.8-21.2l23.2 21.2m25.6 0l.1-.1"/><path d="M228.3 296.1l19.5-21.2m-77.2 21.2l19.5-21.2m-77.2 21.2l19.5-21.2m153.7 21.2v-21.2m0 0H103.3m0 0v21.2m0 0h182.8m-204 347.3h307.5"/></g><path d="M389.6 629.2v-521m0 0H82.1" class="H"/><path d="M82.1 122.4v521" class="D"/></g><path d="M249.1 377.8l-.8-2.7 40.3-12.1.8 2.8-40.3 12" class="E G"/><g class="B C D F"><path d="M249.1 377.8l40.3-12m0 0l-.8-2.8"/><path d="M288.6 363l-40.3 12.1m0 0l.8 2.7"/></g><path d="M82.1 336.7V54.8h296.2v281.9H82.1" class="E G"/><g class="B C F"><g class="H"><path d="M378.3 51.5H82.1m296.2 28.4H82.1m296.2 28.3H82.1m296.2 28.4H82.1m296.2 28.3H82.1m296.2 28.4H82.1m296.2 42.5H82.1"/><path d="M130.2 0v282M158.5 0v282M186.8 0v282M215.2 0v282M243.5 0v282M271.9 0v282M300.2 0v282M328.6 0v282M356.9 0v282"/></g><path d="M82.1 14.2v281.9M378.3 14.2H82.1" class="D"/><path d="M378.3 282V0" class="H"/><path d="M82.1 296.1h296.2" class="D"/></g><path d="M378.3 1.9v21.3H202.5V1.9h175.8" class="E"/><g class="F B C"><g class="D"><path d="M378.3 23.2V1.9M202.5 23.2h175.8"/><path d="M202.5 1.9v21.3M378.3 1.9H202.5"/></g><g class="H"><path d="M106.1 578.9h154.4m-154.4-42.6h154.4m-154.4-42.5h179.3m-179.3-42.5h179.4m-179.4-42.5h179.6m-179.6-42.5h179.8m-179.8-42.6H286"/><path d="M233 619.3V296.1m-42.5 323.2V296.1M148 619.3V296.1"/></g><g class="D"><path d="M107 299.1l-.9-2.7m1.7 5.3l-.8-2.6m6.8.8l-6 1.8"/><path d="M113.8 297v2.9m-.3-3.8l.3.9m172.3-.9H113.5m171.8 209.8l.8-209.8m-.7 209.8h-.1m.8 2.4l-.6-.7m0 0l-.2-1"/><path d="M285.3 506.6l.1-.7m.7 2.5v-.1"/><path d="M260.5 508.3l25.6.1m-25.6 110.9v-111m-14.1 111h14.1m-29.6 0h15.5m-19.1 0h3.6m-124.8 0h121.2M106.1 296.4v322.9"/></g></g><path d="M42.7 101.1h39.4V14.2 1.9h120.4v21.3h-99.2v77.9 21.3H82.1 42.7v-21.3" class="E"/><g class="B C D F"><path d="M82.1 101.1H42.7m39.4-86.9v86.9m0-99.2v12.3M202.5 1.9H82.1m120.4 21.3V1.9m-99.2 21.3h99.2m-99.2 77.9V23.2m0 99.2v-21.3m-21.2 21.3h21.2m-60.6 0h39.4"/><path d="M42.7 101.1v21.3"/></g><path d="M82.1 54.8h737.5v228.1H378.3V337H82.1v-21.5H42.7V163h39.4V54.8" class="E G"/><g class="B C F"><g class="H"><path d="M847.9 51.5H82.1m765.8 141.8H42.7m351.7 28.3H42.7M378.3 250H42.7"/><path d="M73.5 108.2v166.7M101.8 0v282.2M130.2 0v282.2M158.5 0v292.5M186.8 0v292.5M215.2 0v292.5M243.5 0v292.5M271.9 0v292.5M300.2 0v282.2M328.6 0v282.2M356.9 0v282.2M385.3 0v607.9"/></g><g class="D"><path d="M394.4 14.2H82.1m296.2 228.1h16.1m-16.1 54.1v-54.1M82.1 296.4h296.2"/><path d="M82.1 274.9v21.5m-39.4-21.5h39.4M42.7 122.4v152.5"/><path d="M82.1 122.4H42.7M82.1 14.2v108.2"/></g></g><g class="E"><path d="M357 274.9l21.3 21.2H357v-21.2"/><path d="M310.2 296.1v-21.2H357v21.2h-46.8"/><path d="M310.2 274.9v21.2L289 274.9h21.2"/></g><g class="B C D F"><path d="M310.2 296.1h68.1M289 274.9h21.2"/><path d="M357 274.9h-46.8"/></g><path d="M289 274.9l21.2 21.2H289v-21.2m0 209.7h21.2L289 505.9v-21.3" class="E"/><path d="M310.2 484.6V296.1M289 274.9v231" class="B C D F"/><g class="E"><path d="M310.2 484.6v21.3H289l21.2-21.3"/><path d="M371.2 484.6v21.3h-61v-21.3h61"/><path d="M371.2 484.6h21.2l-21.2 21.3v-21.3"/></g><path d="M289 505.9h21.2m0 0h61m21.2-21.3h-82.2" class="B C D F"/><g class="E"><path d="M371.2 505.9l21.2-21.3v21.3h-21.2"/><path d="M392.4 622.1h-21.2V505.9h21.2v116.2"/><path d="M392.4 622.1v21.3l-21.2-21.3h21.2"/></g><path d="M371.2 505.9v116.2m21.2-137.5v21.3m0 137.5V505.9" class="B C D F"/><g class="E"><path d="M371.2 622.1l21.2 21.3h-21.2v-21.3m-246.6 0v7.1 14.2h-21.3v-21.3h21.3"/><path d="M371.2 622.1v21.3H194v-14.2-7.1h177.2m-267.9 0v21.3H82.1l21.2-21.3"/><path d="M124.6 643.4v-14.2-7.1H194v7.1 14.2h-69.4" class="G"/></g><g class="B C D F"><path d="M124.6 629.2v14.2m0-14.2v-7.1m69.4 7.1v14.2m0-14.2v-7.1m177.2 0H194m-69.4 0h-21.3m-21.2 21.3h42.5m267.8 0h-21.2m-177.2 0h177.2m-177.2 0h-69.4"/><path d="M194 622.1h-69.4"/></g><g class="E"><path d="M103.3 622.1l-21.2 21.3v-21.3h21.2"/><path d="M103.3 622.1H82.1V274.9h21.2v347.2"/></g><path d="M103.3 622.1V274.9m0 0H82.1m0 368.5v-21.3m0-347.2v347.2" class="B C D F"/><g class="E"><path d="M378.3 274.9H357V221h21.3v53.9"/><path d="M378.3 274.9v21.2L357 274.9h21.3"/></g><path d="M378.3 296.1v-21.2m0 0V221m-21.3 0h21.3m-21.3 0v53.9" class="B C D F"/><path d="M352.8 274.9v21.2h-69.5v-21.2h69.5" class="E"/><g class="B C D F"><path d="M283.3 296.1h5.3m-5.3-1.4v1.4m0-21.2h5.3"/><path d="M283.3 274.9v17"/><path d="M283.3 274.9v17m0 0v2.8M177 296.1h-5.2"/><path d="M177 294.7v1.4m0-21.2h-5.2m5.2 0v17"/><path d="M177 274.9v17m0 0v2.8m106.3 1.4h69.5"/><path d="M352.8 296.1v-21.2m0 0h-69.5"/></g><g class="E G"><path d="M180.6 294.7v1.4H177v-1.4h3.6m-1.7 4.1h-7.1v-2.7h7.1v2.7m104.4-4.1v1.4h-3.5v-1.4h3.5"/><path d="M281.5 296.1h7.1v2.7h-7.1v-2.7m-100.9-21.2v17H177v-17h3.6"/><path d="M178.9 274.9h-7.1v-2.7h7.1v2.7m104.4 0v17h-3.5v-17h3.5"/><path d="M281.5 272.2h7.1v2.7h-7.1v-2.7"/></g><g class="B C D F"><path d="M180.6 294.7v1.4m0 0H177"/><path d="M177 296.1v-1.4m0 0h3.6m-1.7 4.1h-7.1"/><path d="M171.8 298.8v-2.7m0 0h7.1m0 0v2.7m104.4-4.1v1.4m0 0h-3.5"/><path d="M279.8 296.1v-1.4m0 0h3.5m-1.8 1.4h7.1m0 0v2.7m0 0h-7.1"/><path d="M281.5 298.8v-2.7m-100.9-21.2v17m0 0H177"/><path d="M177 291.9v-17m0 0h3.6m-1.7 0h-7.1m0 0v-2.7"/><path d="M171.8 272.2h7.1m0 0v2.7m104.4 0v17m0 0h-3.5"/><path d="M279.8 291.9v-17m0 0h3.5m-1.8-2.7h7.1m0 0v2.7m0 0h-7.1m0 0v-2.7m.4 126l-6.2-.3m-6-.5l-5.9-.9m-5.9-1.2l-4.3-1.1m0 0l-1.5-.5m-5.7-1.9l-1.9-.6m0 0l-3.6-1.6m-5.5-2.5l-5.3-2.9m-5.1-3.1l-4.9-3.4m-4.7-3.8l-3.2-2.7m0 0l-1.3-1.3m-4.2-4.2l-1.3-1.3m0 0l-2.7-3.2m-3.7-4.7l-3.4-4.9m-3.2-5.1l-2.9-5.3m-2.5-5.4l-1.6-3.7m0 0l-.6-1.9m-1.9-5.7l-.5-1.5m0 0l-1-4.3m-1.3-5.8l-.9-6m-.5-6l-.3-6.2"/></g><g class="E G"><path d="M181.3 289v2.9h-2.9V289h2.9m-4.3 2.9h1.4v2.8H177v-2.8m104.9-2.9v2.9h-2.8V289h2.8"/><path d="M281.9 291.9h1.4v2.8h-1.4v-2.8m0 106.3h-5.7V294.7h5.7v103.5"/></g><g class="B C D F"><path d="M177 291.9v2.8m0 0h1.4m0 0V289m0 0h2.9m0 0v2.9"/><path d="M181.3 291.9H177m102.1 0V289m0 0h2.8m0 0v5.7m0 0h1.4m0 0v-2.8"/><path d="M283.3 291.9h-4.2m2.8 106.3V294.7m0 0h-5.7m0 0v103.5m0 0h5.7M177 291.9v2.8"/><path d="M177 291.9v2.8m0-19.8v17"/><path d="M177 274.9v17m0 2.8v1.4"/><path d="M177 274.9v17m0-17h-5.2"/><path d="M177 274.9h-5.2m5.2 19.8v1.4m0 0h-5.2"/><path d="M177 296.1h-5.2m111.5-4.2v2.8"/><path d="M283.3 291.9v2.8m0-19.8v17"/><path d="M283.3 274.9v17m0 2.8v1.4"/><path d="M283.3 274.9v17m0-17h5.3"/><path d="M283.3 274.9h5.3m-5.3 19.8v1.4m0 0h5.3"/><path d="M283.3 296.1h5.3"/></g><path d="M194 633.5v9.9h-69.4v-9.9H194" class="E"/><g class="B C D F"><path d="M194 633.5h-69.4m0 0v9.9m0 0H194"/><path d="M194 643.4v-9.9"/></g><path d="M127.4 633.5v-2.9h63.8v2.9h-63.8" class="E"/><g class="B C D F"><path d="M127.4 633.5h63.8m0 0v-2.9"/><path d="M191.2 630.6h-63.8m0 0v2.9"/></g><path d="M106.1 622.1h-2.8V296.4h2.8v325.7" class="E"/><path d="M106.1 619.3V296.4m0 0h-2.8m0 0v325.7m0 0h2.8" class="B C D F"/><path d="M106.1 622.1v-2.8h121.2v2.8H106.1" class="E"/><g class="B C D F"><path d="M106.1 622.1h121.2m0 0v-2.8"/><path d="M227.3 619.3H106.1"/></g><path d="M103.3 274.9h2.8v21.5h-2.8v-21.5" class="E"/><g class="B C D F"><path d="M103.3 274.9v21.5m0 0h2.8"/><path d="M106.1 296.4v-21.5m0 0h-2.8"/></g><g class="E"><g class="G"><path d="M106.1 622.1v-2.8h121.2v2.8H106.1"/><path d="M106.1 619.3v2.8h-2.8l2.8-2.8"/></g><path d="M227.3 622.1v-2.8h6.3v2.8h-6.3"/></g><g class="B C D F"><path d="M227.3 622.1h6.3m0 0v-2.8"/><path d="M233.6 619.3h-6.3m0 0v2.8"/></g><path d="M285.9 505.2l.2.2.6.5 2.2 2v.2l-.8.5-1 .1-1-.4-.7-1.1v-1.3l.5-.7" class="E"/><g class="B C D F"><path d="M285.4 505.9l.5-.7m.2 3.1l-.6-.7m0 0l-.2-1"/><path d="M285.3 506.6l.1-.7m3.5 2.2l-.7.5m0 0l-.8.1m0 0l-1.3-.4"/><path d="M288.9 508.1v-.2m0 0l-2.2-2m0 0l-.6-.5m0 0l-.2-.2"/></g><g class="E G"><path d="M106.1 619.3l-2.8 2.8v-2.8h2.8"/><path d="M106.1 619.3h-2.8V296.4h2.8v322.9m262.3 0v2.8H231.9v-2.8h136.5"/></g><g class="B C D F"><path d="M231.9 622.1h139.3m-2.8-2.8H231.9"/><path d="M231.9 619.3v2.8"/></g><g class="E G"><path d="M368.4 508.7l2.8-2.8v2.8h-2.8"/><path d="M371.2 619.3h-2.8V508.7h2.8v110.6"/><path d="M371.2 619.3v2.8l-2.8-2.8h2.8"/></g><path d="M368.4 508.7v110.6m2.8 2.8v-2.8m0 0V505.9" class="B C D F"/><g class="E G"><path d="M368.4 505.9v2.8h-82.3v-2.8h82.3"/><path d="M368.4 505.9h2.8l-2.8 2.8v-2.8"/></g><g class="B C D F"><path d="M371.2 505.9h-2.8m0 0h-82.3m0 2.8v-2.8m0 2.8h82.3M82.1 122.4H42.7m0 0v152.5m0 0h39.4m0 0v21.5m0 0h296.2m0 0v-54.1m0 0h16.1m0-240.4H82.1"/><path d="M82.1 1.9v120.5"/></g><path d="M367.6 570.8v.5.6.6.6.6.5h-24v-3.4h24" class="E G"/><g class="B C D F"><path d="M367.6 570.8v.5m0 0v.6m0 0v.6m0 0v.6m0 0v.6m0 0v.5m0 0h-24"/><path d="M343.6 574.2v-3.4m0 0h24"/></g><path d="M367.6 572.5v-.6-.6-.6-.5-.4-.4-.2-.2h0 .8 0v.2.2.4.4.5.6.6.6.6.6.6.5.4.4.2.2.1h-.8v-.1-.2-.2-.4-.4-.5-1.8" class="E G"/><g class="B C D F"><path d="M367.6 572.5v-.6m0 0v-.6m0 0v-.6m0 0v-.5m0 0v-.4m0 0v-.4m0 0v-.2m0 0v-.2"/><path d="M367.6 569h0"/><path d="M367.6 569h.8"/><path d="M368.4 569h0"/><path d="M368.4 569v.2m0 0v.2m0 0v.4m0 0v.4m0 0v.5m0 0v.6m0 0v.6m0 0v.6m0 0v.6m0 0v.6m0 0v.6m0 0v.5m0 0v.4m0 0v.4m0 0v.2m0 0v.2m0 0v.1m0 0h-.8"/><path d="M367.6 576.1v-.1m0 0v-.2m0 0v-.2m0 0v-.4m0 0v-.4m0 0v-.5m0 0v-.6m0 0v-.6m0 0v-.6"/></g><path d="M367.6 552.7v5.6h-4.2v-5.6h4.2" class="E G"/><g class="B C D F"><path d="M367.6 552.7v5.6m0 0h-4.2m0 0v-5.6"/><path d="M363.4 552.7h4.2"/></g><path d="M358.9 552.7h4.2v5.6h-4.2v-5.6" class="E G"/><g class="B C D F"><path d="M358.9 552.7h4.2m0 0v5.6m0 0h-4.2m0 0v-5.6"/><path d="M358.9 552.7h0"/></g><path d="M367.6 559.1V552h.8v7.1h-.8" class="E G"/><g class="B C D F"><path d="M367.6 559.1V552m0 0h.8m0 0v7.1"/><path d="M368.4 559.1h-.8m0 15.1h0"/><path d="M367.6 574.2v-.1m0 0v-.1m0 0v-.2m0 0v-.2m0 0v-.2m0 0v-.3m0 0v-.3m0 0v-.3m0 0v-.3m0 0v-.3m0 0v-.2m0 0v-.3m0 0v-.2m0 0v-.2m0 0v-.1m0 0v-.1"/><path d="M367.6 570.8h0m-24 3.4h24"/><path d="M343.6 570.8h24m0 5.3v-.1m0 0v-.2m0 0v-.2m0 0v-.4m0 0v-.4m0 0v-.5m0 0v-.6m0 0v-.6m0 0v-.6m0 0v-.6m0 0v-.6m0 0v-.6m0 0v-.5m0 0v-.4m0 0v-.4m0 0v-.2m0 0v-.2"/><path d="M367.6 569h0m.8 7.1v-.1m0 0v-.2m0 0v-.2m0 0v-.4m0 0v-.4m0 0v-.5m0 0v-.6m0 0v-.6m0 0v-.6m0 0v-.6m0 0v-.6m0 0v-.6m0 0v-.5m0 0v-.4m0 0v-.4m0 0v-.2m0 0v-.2"/><path d="M368.4 569h0"/><path d="M368.4 569v.2m0 0v.2m0 0v.4m0 0v.4m0 0v.5m0 0v.6m0 0v.6m-.8 4.2h.8"/><path d="M367.6 569h.8m-.8-9.9h.8m-.8-7.1h.8m-9.5 6.3v-5.6m0 5.6h4.2"/><path d="M358.9 552.7h4.2m.3 5.6h4.2"/><path d="M363.4 552.7h4.2m-24 21.5v-3.4m19.5-12.5v-5.6m.3 0v5.6m4.2.8V552m.8 0v7.1m-70.5-45.5l-.3-.8m-.4-1.4l-.4-1.4m-.4-1.3l-.4-1.4m-.4-1.3l-.3-.9m0 0l-.7.2m-1.3.4l-.7.2m2.6 8.6l-.3-.9m-.4-1.4l-.4-1.3m-.4-1.4l-.4-1.4m-.4-1.3l-.3-.9m5.3 7.7l-.7.3m-1.3.3l-.7.3m-9.1-5.8V274.9m2.9 231v2.8"/><path d="M289 508.7h15.5m-62.2 110.6h-8.7"/><path d="M233.6 619.3h.8m1.4 0h1.4m1.5 0h1.4m1.4 0h.8M349.4 564h19M106.1 274.9h7.8m8 0h8m8 0h8m8 0h8m8 0h7.7m-.6 21.2h109.1M42.7 274.9V122.4m39.4 152.5h24"/><path d="M106.1 274.9H177m0 0v21.2m0 0h-70.9m0 0v.3m0 0h-2.8m0 0v325.7m0 0h267.9"/><path d="M371.2 622.1V505.2m0 0H289m0 0v2.9m0 0h-.1m0 0l-.7.5m0 0l-.8.1m0 0l-1-.2m0 0l-.8-.8m0 0l-.3-1.1"/><path d="M285.3 506.6l.1-.8m0 0l.5-.6m0 0h.2m0 0v-20.6m0 0V296.1m0 0v-21.2m0 0H357m0 0v-53.6m0 0v-.3m0 0h21.3m0 0v75.1m0 0H357m0 0h-46.8m0 0v188.5m0 0h61m0 0h21.2m0 0v137.5m0 0v21.3m0 0H82.1"/><path d="M82.1 643.4v-347m0 0v-21.5"/></g><path d="M378.3 296.1v188.5h-68.1V296.1h68.1" class="E G"/><g class="B C D F"><path d="M378.3 296.1v188.5m0 0h-68.1m0 0V296.1"/><path d="M310.2 296.1h68.1"/></g><path d="M330.1 562.6H367v-1.4h1.4l-.1 5.6h-1.4v-1.4H330l-.8 3.5-1.7 3.2-2.4 2.6-3 2-3.3 1.1-3.6.3-3.5-.6-3.3-1.5-2.7-2.2-2.2-2.9-1.3-3.3-.5-3.6.4-3.5 1.4-3.4 2.1-2.9 2.8-2.3 3.2-1.5 3.6-.6 3.6.3 3.4 1.1 3 2 2.4 2.7 1.6 3.2.9 3.5" class="E G"/><g class="B C D F"><path d="M330.1 562.6H367m0 0v-1.4m0 0h1.4m0 0l-.1 5.6m0 0h-1.4m0 0v-1.4m0 0H330m0 0l-.8 3.4m0 0l-1.5 3.1m0 0l-2.3 2.6m0 0l-2.8 2m0 0l-3.3 1.2m0 0l-3.4.4m0 0l-3.1-.3m0 0l-3-1.1m0 0l-2.7-1.6m0 0l-2.3-2.3m0 0l-1.7-2.6m0 0l-1-3m0 0l-.4-3.2"/><path d="M301.7 564h0"/><path d="M301.7 564l.4-3.2m0 0l1-3m0 0l1.7-2.7m0 0l2.3-2.2m0 0l2.7-1.7m0 0l3-1.1m0 0l3.1-.3m0 0l3.5.4m0 0l3.2 1.2m0 0l2.9 2m0 0l2.2 2.7m0 0l1.6 3.1m0 0l.8 3.4"/></g><path d="M105.4 293.8l6.8-2.1 1.6 5.3v2.9l-6 1.8-.8-2.6-1.6-5.3" class="E"/><path d="M112.2 291.7l-6.8 2.1m8.4 3.2l-1.6-5.3m1.6 8.2V297m-6 4.7l6-1.8m-6.8-.8l.8 2.6m-2.4-7.9l1.6 5.3" class="B C D F"/><path d="M82.1 1.9h120.4v21.3h-99.2v99.2H82.1V1.9" class="E"/><g class="B C D F"><path d="M202.5 1.9H82.1m120.4 21.3V1.9m-99.2 21.3h99.2m-99.2 99.2V23.2m-21.2 99.2h21.2"/><path d="M82.1 14.2v108.2m0-120.5v12.3"/></g><path d="M171.6 505.1h-68.3v-140h68.3v140" class="E G"/><g class="B C D F"><path d="M103.3 505.1h68.3m-68.3-140v140"/><path d="M171.6 365.1h-68.3m68.3 140v-140m-89.5-90.2h24"/><path d="M106.1 274.9v21.5m0 0h-2.8m0 0v325.7m0 0h267.9"/><path d="M371.2 622.1V505.2m0 0H289m0 0v2.9m0 0h-.1m-3-2.9h.2m0 0v-20.6m0 0V296.1m0 0v-21.2"/><path d="M286.1 274.9h5.7m0 0H357m0 0v-32.6m0 0v-18m0 0v-3m0 0v-.3m0 0h21.3m0 0h16.1m0 0v21.3m0 0h-16.1m0 0v53.8m0 0H357m0 0h-46.8m0 0v188.5m0 0h61m0 0h21.2m0 0v137.5m0 0v21.3m0 0H82.1"/><path d="M82.1 643.4v-347m0 0H42.7m0 0v-21.5"/><path d="M42.7 274.9h39.4"/></g><path d="M394.4 1.9v21.3H202.5V1.9h191.9" class="E"/><g class="B C D F"><path d="M394.4 23.2V1.9M202.5 23.2h191.9"/><path d="M202.5 1.9v21.3M394.4 1.9H202.5"/></g><path d="M368.4 619.3l2.8 2.8h-2.8v-2.8" class="E"/><g class="B C D F"><path d="M371.2 622.1h-2.8m-141.1 0h141.1m0-2.8H227.3"/><path d="M227.3 622.1v-2.8"/></g><path d="M368.4 619.3h2.8v2.8l-2.8-2.8m0-110.6l2.8-2.8v2.8h-2.8" class="E"/><path d="M371.2 622.1V505.9m-2.8 2.8v110.6" class="B C D F"/><path d="M368.4 505.9h2.8l-2.8 2.8v-2.8" class="E"/><g class="B C D F"><path d="M371.2 505.9h-2.8m0 0H289m0 0v2.8m0 0h79.4m-52.5 56.7h51"/><path d="M315.9 562.6h51m0-1.4v5.6m0 0h1.5"/><path d="M368.4 566.8v-5.6m0 0h-1.5m-36.9 4.2l-.7 3.4m0 0l-1.6 3.1m0 0l-2.3 2.6m0 0l-2.8 2m0 0l-3.2 1.3m0 0l-3.5.4m0 0l-3.1-.4m0 0l-3-1m0 0l-2.7-1.7m0 0l-2.3-2.3m0 0l-1.7-2.6m0 0l-1-3m0 0l-.4-3.2m0 0l.4-3.1m0 0l1-3m0 0l1.7-2.7m0 0l2.3-2.3m0 0l2.7-1.7m0 0l3-1m0 0l3.1-.4"/><path d="M315.9 549.8l3.5.5m0 0l3.2 1.2m0 0l2.8 2m0 0l2.3 2.6m0 0l1.6 3.1m0 0l.7 3.4m-14.1 2.8l-1-.4m0 0l-.4-1"/><path d="M314.5 564l.4-1m0 0l1-.4"/></g><g class="E G"><path d="M167.6 538.7l7 1.7 6.7 2.7 5.3 3.7 4 4.6 2.5 5.5.9 5.8-.9 5.8-2.5 5.4-4 4.7-5.3 3.6-6.7 2.7-7 1.8-7.3.8-7.3-.2-49.7-4.6v-40l49.7-4.6 7.3-.2 7.3.8"/><path d="M103.3 536.2l2.2-1 2.1-.9 2.3-.7 2.3-.6 2.3-.5 2.3-.4 2.4-.2h2.3l1.7.1 1.5.6 1.4.8 1.2 1.2.9 1.4.6 1.5.2 1.7-.2 1.6-.9 5.4-.7 5.5-.4 5.5-.2 5.5.2 5.5.4 5.5.7 5.5.9 5.4.2 1.6-.2 1.7-.6 1.5-.9 1.4-1.2 1.1-1.4.9-1.5.5-1.7.2-2.3-.1-2.4-.2-2.3-.3-2.3-.5-2.3-.6-2.3-.8-2.1-.8-2.2-1v-53m0-239.8h68.3v68.7h-68.3v-68.7"/></g><g class="F B C"><g class="D"><path d="M104.4 434.8l.2-1.2m0 0l.9-1.3m0 0l1.3-.8m0 0l1.5-.3m0 0l1.5.3m0 0l1.3.8m.5.8l-.5-.8m.5 4.8l-.5.8"/><path d="M111.1 437.9l.5-.8m-1.8 1.7l-1.5.3m0 0l-1.5-.3m0 0l-1.3-.9m0 0l-.9-1.3m0 0l-.2-1.1m2-1.1l-.1.7m.6-1.4l-.5.7m1.1-1.1l-.6.4m1.4-.6l-.8.2"/><path d="M107.5 437l.8.1m-1.4-.6l.6.5m-1.1-1.1l.5.6m-.6-1.4l.1.8m1.9-2.8h.2m-.2 4h.2m0-4h.6m-.6 4h.6m0-4h1m-1 4h1m0-4h1.3m-1.3 4h1.3m0-4h1.6m-1.6 4h1.6m0-4h1.8m-1.8 4h1.8m0-4h1.9m-1.9 4h1.9m0-4h2.1m-2.1 4h2.1m0-4h2m-2 4h2m0-4h1.9m-1.9 4h1.9m0-4h1.8m-1.8 4h1.8m0-4h1.5m-1.5 4h1.5m0-4h1.2m-1.2 4h1.2m2.1-2.7l.2.7m-.5-1.4l.3.7m-.9-1.1l.6.4m-1.8-.6l.5.1"/><path d="M127.7 433.2l.7.1m-1.2 3.8h.5m.7-.1l-.7.1m1.3-.6l-.6.5m.9-1.1l-.1.3"/><path d="M129 436.5h0m.5-1.4l-.2.8m-24.2-1.1h-.9"/><path d="M105.1 434.8h0"/><path d="M105.1 434.9v-.1m0 .2v-.1m0 .2v-.1m0 .3v-.2m0 .3v-.1"/><path d="M105.1 435.4h0m-.9.1h.9"/><path d="M105.1 435.5v-.1m-.9.1v-.1"/><path d="M104.2 435.4h0"/><path d="M104.2 435.4v-.1m0 0v-.2m0 0v-.1m0 0v-.1m0 0v-.1"/><path d="M104.2 434.8h0m1.6.3v.2"/><path d="M105.8 435.3v-.2m-.1.3l.1-.1m-.2.1h.1m-.3.1l.2-.1m0-.6h-.2"/><path d="M105.7 434.9l-.1-.1m.2.2l-.1-.1m.1.2v-.1m-.4.5h0m0-.7h0"/><path d="M105.4 435.5h-.1m.1-.7h-.1m0 .7h-.1"/><path d="M105.3 434.8h-.1m0 .7h-.1"/><path d="M105.1 435.4v.1"/><path d="M105.1 435.4h0m0-.6h0m.1 0h-.1"/><path d="M105.1 434.8h0m22.5-1.7h.1m1.2 0h-1.2m1.2 0l.7.2m0 0l.6.4m0 0l.4.7m0 0l.1.7m0 0l-.1.8m0 0l-.4.6m0 0l-.6.5m0 0l-.7.1m0 0h-1.1m-20.1-15.4l-.1-.1m.3.2l-.2-.1m.4.1h-.2m.4.1l-.2-.1m.4 0l-.2.1m.3-.1h-.1m.3-.1l-.2.1m.3-.2l-.1.1m-1-.7h-.1m0 0v-.1m0-.1v.1m0-.1l-.1-.1m0 0v-.1m0-.1v.1m0-.3v.2m0-.3v.1"/><path d="M107.9 421.2l-.1-.1m0 0v-.1m.2.2h0"/><path d="M108 421.2h-.1m.1 0l.1.1m.1 0l-.1-.1"/><path d="M108.1 421.3h.1m-.1-.1h0"/><path d="M108.1 421.2v-.1m-.1 0v-.1m0 0v-.1"/><path d="M108 421h0m0-.1v-.1"/><path d="M108 420.9h0m0-.1v-.1"/><path d="M108 420.8h0m0-.2v-.1m0 .2v-.1m0-.1v-.2"/><path d="M108 420.5h0m0-.2v-.2"/><path d="M108 420.3h0m0-.2v-.2"/><path d="M108 420.1h0m0-.2v-.2"/><path d="M108 419.9h0m0-.2h0m.3-1.1h-.1m0 0h-.1m0 0l-.1-.1"/><path d="M108 418.5h0m-.4 1.4v-.2m0 .5v-.2"/><path d="M107.6 420v-.1m.1-.4l-.1.2m.1-.4v.2m.3-1l-.1-.1"/><path d="M107.9 418.4h0m-.2.9v-.2m0 0l.1-.3m.1-.3l-.1.3"/><path d="M107.9 418.3v.2m.6 1.4v-.2m-.5 0v.2m.6.2l-.1-.2m-.5 0v.2m0 0v.2m.6 0v-.2m-.6.2v.2m.6 0v-.2m0 .3v-.1m-.6 0v.1m0 0v.2m.6 0v-.2m0 .3v-.1m-.6 0v.1m.5.1l.1-.1m-.6 0v.1m.5.1v-.1m-.5 0v.1m.5.1v-.1m-.5 0l.1.1"/><path d="M108.1 421.2h0m.3 0h.1"/><path d="M108.1 421.2l.1.1m.1 0l.1-.1"/><path d="M108.2 421.3h.1m.3-3l.1.2m0 0v.3m.1.3l-.1-.3m.1.5v-.2m-.2-.7h0"/><path d="M108.6 418.4v.1m.3 1.7v-.2m-.1-.7l.1.2m0 0v.2m0 .3v-.1"/><path d="M108.9 419.9v-.2m-.3-1.2h-.1m0 0l-.1.1"/><path d="M108.4 418.6h0"/><path d="M108.4 418.6h-.1m.2 1.1h0"/><path d="M108.5 419.7v.2"/><path d="M108.5 419.9h0"/><path d="M108.5 419.9l.1.2"/><path d="M108.6 420.1h0"/><path d="M108.6 420.1v.2"/><path d="M108.6 420.3h0"/><path d="M108.6 420.3v.2"/><path d="M108.6 420.5h0"/><path d="M108.6 420.5v.1m0 0v.1m0 0v.1"/><path d="M108.6 420.8h0"/><path d="M108.6 420.8v.1"/><path d="M108.6 420.9h0"/><path d="M108.6 420.9l-.1.1"/><path d="M108.5 421h0"/><path d="M108.5 421v.1"/><path d="M108.5 421.1h0"/><path d="M108.5 421.1v.1"/><path d="M108.5 421.2h0"/><path d="M108.5 421.2h-.1"/><path d="M108.4 421.2h0"/><path d="M108.4 421.2l-.1.1m0 0h.1m0 0l.1-.1m0 0h.1m.1-.1l.1-.1"/><path d="M108.8 421h0m-.2.2h0"/><path d="M108.6 421.2l.1-.1m.2-.9v.1m0 0v.2m0 0v.1m0 .2v-.1"/><path d="M108.9 420.7v-.1m0 .2l-.1.1m0 .1v-.1m-.6-2.9h0"/><path d="M108.2 418h.1m-.1 0h-.1m0 .1v-.1m0 .1h-.1"/><path d="M108 418.1h0"/><path d="M108 418.1v.1m-.1.1l.1-.1m-.1.1v.1"/><path d="M107.9 418.4h0"/><path d="M107.9 418.4h.1"/><path d="M107.9 418.4h0m.1 0v.1"/><path d="M108 418.5h0"/><path d="M108 418.5h0"/><path d="M108 418.5l.1.1"/><path d="M108.1 418.6h0"/><path d="M108.1 418.6h0m.1 0h0"/><path d="M108.1 418.6h.1m0 0h.1"/><path d="M108.3 418.6h0"/><path d="M108.3 418.6h.1"/><path d="M108.4 418.6h0"/><path d="M108.4 418.6h.1"/><path d="M108.4 418.6h0m.1 0v-.1m0 0h.1m0 0v-.1"/><path d="M108.6 418.5h0m0-.1h0"/><path d="M108.6 418.4h0"/><path d="M108.6 418.4h0"/><path d="M108.6 418.4h0"/><path d="M108.6 418.4v-.1m0-.1v.1m0-.2v.1m0-.1h-.1"/><path d="M108.5 418.1h0"/><path d="M108.5 418.1l-.1-.1m-.1 0h0"/><path d="M108.3 418h.1"/><path d="M108.3 418h0m-.6 3.7l.1.1m.3-.5h0"/><path d="M108.1 421.3l-.1-.1m0 .6h.1m-.3 0h.1"/><path d="M107.9 421.8h.1m.1 0h0m.4 0h0"/><path d="M108.5 421.8h.1m0 0h.1"/><path d="M108.6 421.8h0m-.1-.6h0m-.1.1h0m.3.5l.1-.1m-.5 3.2l-1.6-.3m0 0l-1.2-.9m0 0l-.9-1.2m0 0l-.3-1.6m0 0l.3-1.5m0 0l.9-1.3m0 0l1.3-.8m0 0l1.5-.3m0 0l1.5.3m0 0l1.3.8m0 0l.8 1.3m0 0l.3 1.5m0 0l-.3 1.6m0 0l-.8 1.3m0 0l-1.3.8m0 0l-1.5.3m.5 23.6l.1.1m-.3-.2l.2.1m-.3-.1h.1m-.3 0h.2m-.4 0h.2m-.4 0h.2m-.4.1l.2-.1m-.3.2l.1-.1m1.1.7v.1m0 0v.1m.1 0h-.1m.1 0v.2"/><path d="M108.9 449.6h0"/><path d="M108.9 449.8v-.2m0 .3v-.1m0 .3v-.2m-.3-.8h.1m0 0l.1.1m-.3-.2h.1"/><path d="M108.6 449v.1m-.1-.1h-.1m-.1 0h.1"/><path d="M108.4 449h-.1m.1 0h.1"/><path d="M108.4 449h0m.1.1h0"/><path d="M108.5 449v.1m0 0v.1"/><path d="M108.5 449.1h0m0 .1l.1.1"/><path d="M108.5 449.2h0m.1.1v.1"/><path d="M108.6 449.3h0m0 .2v.1m0-.2v.1m0 .1v.1"/><path d="M108.6 449.6h0m0 .1v.2"/><path d="M108.6 449.7h0m0 .2v.2"/><path d="M108.6 449.9h0m0 .2l-.1.2"/><path d="M108.6 450.1h0m-.1.2v.2"/><path d="M108.5 450.3h0m0 .2h0m-.2 1.1h.1"/><path d="M108.4 451.6h0"/><path d="M108.4 451.6l.1.1m0 0l.1.1m.3-1.5v.2m0-.4v.1"/><path d="M108.9 450.2v.1m0 .4v-.2m-.1.4l.1-.2m-.3 1.1h0"/><path d="M108.6 451.8h0m.2-.9v.3m0 0l-.1.2m0 .3v-.3m-.1.6l.1-.3m-.7-1.4v.2m.5 0v-.2m-.5-.2v.2"/><path d="M108.5 450.3l.1-.2m0 0v-.2m-.6 0v.2m.6-.2v-.2m-.6.1v.1m0-.3v.2"/><path d="M108.6 449.7v-.1m0 0v-.1m-.6 0v.1m0-.3v.2m.6 0v-.2m-.6-.1v.1m.6 0l-.1-.1m-.5-.1v.1"/><path d="M108.5 449.2v-.1m-.4 0h-.1"/><path d="M108.5 449.1h0"/><path d="M108.5 449.1l-.1-.1m-.3 0v.1m.3-.1h-.1m-.1 0h-.1"/><path d="M108.3 449h-.1m-.3 3v-.3m0 0l-.1-.3m-.1-.2l.1.2"/><path d="M107.7 450.9v.3m.2.6h0"/><path d="M107.9 451.8h.1m-.4-1.7v.1m.1.7v-.2m0 0l-.1-.2"/><path d="M107.6 450.2v.1m0 0v.2m.4 1.3v-.1m0 0l.1-.1m0 0h.1m0 0h.1"/><path d="M108 450.5h0"/><path d="M108 450.5v-.2"/><path d="M108 450.3h0"/><path d="M108 450.3v-.2"/><path d="M108 450.1h0"/><path d="M108 450.1v-.2"/><path d="M108 449.9h0"/><path d="M108 449.9v-.1m0 0v-.1m0 0v-.1"/><path d="M108 449.6h0"/><path d="M108 449.6v-.1m0 0v-.1m0 0v-.1"/><path d="M108 449.3h0"/><path d="M108 449.3v-.1"/><path d="M108 449.2h0"/><path d="M108 449.2v-.1m.1 0v-.1"/><path d="M108.1 449h0"/><path d="M108.1 449h.1"/><path d="M108.2 449h-.1m0 0h-.1"/><path d="M108 449h0m-.2.1v.1m0 0l-.1.1"/><path d="M108 449l-.1.1m0 0h-.1m-.2 1v-.2m0 0v-.1m0 0v-.2m.1-.2l-.1.2"/><path d="M107.6 449.6h0m.1-.2h0m0-.1v.1m.6 2.8h0"/><path d="M108.3 452.2h0"/><path d="M108.3 452.2h.1m.1 0h-.1m.1 0v-.1m.1 0h-.1m.1 0v-.1"/><path d="M108.6 452h0m0-.1v-.1"/><path d="M108.6 451.8h0"/><path d="M108.6 451.8h0"/><path d="M108.6 451.8h0"/><path d="M108.6 451.8h0"/><path d="M108.6 451.8v-.1m0 0h-.1"/><path d="M108.5 451.7h0"/><path d="M108.5 451.7l-.1-.1"/><path d="M108.4 451.6h0"/><path d="M108.4 451.6h-.1"/><path d="M108.4 451.6h0m-.1 0h0"/><path d="M108.3 451.6h-.1"/><path d="M108.2 451.6h0"/><path d="M108.2 451.6h-.1m0 0v.1"/><path d="M108.1 451.6h0m0 .1h-.1"/><path d="M108 451.7h0m0 .1h0"/><path d="M108 451.7v.1m0 0h-.1"/><path d="M107.9 451.8h0"/><path d="M107.9 451.8l.1.1"/><path d="M107.9 451.8h0"/><path d="M107.9 451.8v.1m.1.1h-.1m.1.1v-.1"/><path d="M108 452.1h0"/><path d="M108.1 452.2l-.1-.1"/><path d="M108.1 452.2h0m.1 0h.1"/><path d="M108.2 452.2h-.1"/><path d="M108.2 452.2h0m.6-3.7h-.1m-.2.5h0m-.2 0h.1m.2-.6h-.1"/><path d="M108.7 448.5l-.1-.1"/><path d="M108.6 448.4h0m-.1 0h0m-.4 0h0"/><path d="M108.1 448.4h-.1m-.1 0l-.1.1"/><path d="M108 448.4h-.1m.3.6h0m-.2 0h.1"/><path d="M108.1 449h0m-.3-.5h-.1m.6-3.2l1.5.3m0 0l1.3.9m0 0l.8 1.3m0 0l.3 1.5m0 0l-.3 1.5m0 0l-.8 1.3m0 0l-1.3.9m0 0l-1.5.3m0 0l-1.5-.3m0 0l-1.3-.9m0 0l-.9-1.3m0 0l-.3-1.5"/><path d="M104.3 449.3l.3-1.5m0 0l.9-1.3m0 0l1.2-.9m0 0l1.6-.3m58.9-10.2l-.2-5.6m0 0l-.7-5.5m0 0l-1.2-5.4m0 0l-1.4-4.7m0 0l-1.9-4.5m0 0l-2.4-4.3m0 0l-2.4-3.5m0 0l-2.8-3m0 0l-3.3-2.7m0 0l-3.2-1.8m0 0l-3.5-1.1m0 0l-3.7-.4m0 0l-3.6.4m0 0l-3.5 1.1m0 0l-3.2 1.8m0 0l-3.3 2.7m0 0l-2.8 3m0 0l-2.4 3.5m0 0l-2.4 4.3m0 0l-1.9 4.5m0 0l-1.4 4.7m0 0l-1.2 5.4m0 0l-.7 5.5m0 0l-.2 5.6m0 0l.2 5.6m0 0l.7 5.5m0 0l1.2 5.5m0 0l1.4 4.7m0 0l1.9 4.5m0 0l2.4 4.3m0 0l2.4 3.4m0 0l2.8 3.1m0 0l3.3 2.6m0 0l3.2 1.8m0 0l3.5 1.1m0 0l3.6.4m0 0l3.7-.4m0 0l3.5-1.1m0 0l3.2-1.8m0 0l3.3-2.6m0 0l2.8-3.1m0 0l2.4-3.4m0 0l2.4-4.3m0 0l1.9-4.5m0 0l1.4-4.7m0 0l1.2-5.5m0 0l.7-5.5m0 0l.2-5.6"/><path d="M143.9 435.1l-.4-1.7m0 0l-1.3-1.2m0 0l-1.7-.4m0 0l-1.6.4m0 0l-1.3 1.2m0 0l-.4 1.7m0 0l.4 1.7m0 0l1.3 1.2m0 0l1.6.5m0 0l1.7-.5m0 0l1.3-1.2m0 0l.4-1.7"/></g><g class="H"><path d="M413.6 0v622.1M442 0v622.1M470.3 0v622.1M498.7 0v622.1M527 0v622.1M555.4 0v622.1M583.7 0v622.1M612 0v622.1M640.4 0v622.1M668.7 0v622.1M697.1 0v622.1M725.4 0v622.1m28.4-573.4v573.4m28.3-573.4v573.4m28.4-573.4v573.4"/><path d="M822.4 79.9H82.1m740.3 28.3H82.1m740.3 28.4H42.7m779.7 28.3H42.7m805.2 226.8H378.3"/><path d="M822.4 278.3H378.3m444.1 28.4H378.3M822.4 335H378.3m444.1 28.3H378.3M847.9 420H378.3m469.6 141.8H378.3m359.4-170.1H378.3"/><path d="M822.4 448.4H378.3m444.1 28.3H378.3m444.1 28.4H378.3m444.1 28.3H378.3m469.6 56.7H378.3"/><path d="M737.7 561.8H378.3m359.4 28.3H378.3M394.4 250H42.7"/></g></g><path fill="#fefefe" d="M819.6 1.9h28.3v61h-28.3V23.2h-81.9v25.5h-12.3V23.2H102.6v99.2H82.1 42.7v-21.3h39.4V23.2 1.9h737.5" class="E"/><g class="B C F"><g class="I"><path d="M847.9 1.9h-28.3m28.3 61v-61m-28.3 61h28.3"/><path d="M819.6 23.2v39.7m-81.9-39.7h81.9m-81.9 25.5V23.2m-12.3 25.5h12.3"/><path d="M725.4 23.2v25.5M102.6 23.2h622.8m-622.8 99.2V23.2m-20.5 99.2h20.5m-59.9 0h39.4"/><path d="M42.7 101.1v21.3m39.4-21.3H42.7m39.4-77.9v77.9m0-99.2v21.3M819.6 1.9H82.1"/></g><g class="D"><path d="M737.7 48.7h81.9m0 0v-3.5"/><path d="M819.6 45.2h-81.9m0 0v3.5"/></g></g><path fill="#fefefe" d="M177 274.9v21.5h-73.7v325.7h267.9V505.2H289h-2.9v-20.6-188.5-21.2h5.7H357v-32.6-18-3-.3h21.3 16.1v21.3h-16.1v53.8H357h-46.8v188.5h61 21.2v137.5h427.2V242.3H515.4V221h304.2v-21.2h28.3v42.5 401.1h-28.3H82.1v-347H42.7v-21.5H177" class="E"/><g class="B C F I"><path d="M177 274.9v21.5m0 0h-73.7m0 0v325.7m0 0h267.9"/><path d="M371.2 622.1V505.2m0 0H289m0 0h-2.9m0 0v-20.6m0 0V296.1m0 0v-21.2"/><path d="M286.1 274.9h5.7m0 0H357m0 0v-32.6m0 0v-18m0 0v-3m0 0v-.3m0 0h21.3m0 0h16.1m0 0v21.3m0 0h-16.1m0 0v53.8m0 0H357m0 0h-46.8m0 0v188.5m0 0h61m0 0h21.2m0 0v137.5m0 0h427.2"/><path d="M819.6 622.1V242.3m0 0H515.4m0 0V221"/><path d="M515.4 221h304.2m0 0v-21.2m0 0h28.3m0 0v42.5m0 0v401.1m0 0h-28.3m0 0H82.1"/><path d="M82.1 643.4v-347m0 0H42.7m0 0v-21.5m0 0H177"/></g><path d="M822.4 62.9v5.7h-2.8v-5.7h2.8m0 131.2v5.7h-2.8v-5.7h2.8" class="E"/><g class="B C D F"><path d="M819.6 68.6v-5.2m2.8 5.2v-5.2m0 5.2h-2.8m0 125.5v5.3m2.8-5.3v5.3m0-5.3h-2.8"/><path d="M819.6 62.9v5.7m0 125.5v5.7m0 0h2.8"/><path d="M822.4 199.8v-5.7m0-125.5v-5.7m0 0h-2.8"/></g><path d="M816.9 192.3h2.7v7.1h-2.7v-7.1m2.7-121.8h-2.7v-7.1h2.7v7.1m2.8 121.8h2.7v7.1h-2.7v-7.1m2.7-121.8h-2.7v-7.1h2.7v7.1" class="E G"/><g class="B C D F"><path d="M816.9 192.3v7.1m0 0h2.7"/><path d="M819.6 199.4v-7.1m0 0h-2.7m2.7-121.8v-7.1"/><path d="M819.6 63.4h-2.7m0 0v7.1m0 0h2.7m2.8 121.8v7.1m0 0h2.7"/><path d="M825.1 199.4v-7.1m0 0h-2.7m2.7-121.8v-7.1"/><path d="M825.1 63.4h-2.7m0 0v7.1m0 0h2.7M696.9 70l.1 3.4m.3 6l.1 1.3m0 0l.6 4.6m.7 6h.1m0 0l1.2 5.8m1.4 5.9l1.8 5.7m2.1 5.6l2.2 5.6m2.6 5.4l2.8 5.3m3.2 5.1l3 4.7m0 0l.2.3m3.7 4.8l2.6 3.4m0 0l1.1 1.3m4.1 4.4l2 2.2m0 0l2.2 2m4.5 4.1l1.2 1.1m0 0l3.4 2.6m4.8 3.7l.3.2m0 0l4.7 3m5.1 3.2l5.3 2.8m5.5 2.6l5.5 2.3m5.6 2l5.8 1.8m5.8 1.4l5.8 1.3m0 0h.1m5.9.8l4.6.6m0 0h1.4m6 .3l3.3.1"/></g><g class="E G"><path d="M819.6 192.7h2.8v1.4h-2.8v-1.4m2.8-2.8h2.9v2.8h-2.9v-2.8m0-121.3V70h-2.8v-1.4h2.8m2.9 1.4v2.9h-2.9V70h2.9m-128.4 0h2.8v5.7h-2.8V70m122.7 5.7h-2.8V70h2.8v5.7"/><path d="M699.7 70h117.1v2.9H699.7V70"/></g><g class="B C D F"><path d="M699.7 70h117.1m0 0v2.9m0 0H699.7"/><path d="M699.7 72.9V70"/></g><path d="M699.7 72.9h117.1v2.8H699.7v-2.8" class="E G"/><g class="B C D F"><path d="M699.7 72.9h117.1m0 0v2.8m0 0H699.7"/><path d="M699.7 75.7v-2.8m122.7 121.2h-2.8"/><path d="M819.6 194.1v-1.4m0 0h5.7m0 0v-2.8"/><path d="M825.3 189.9h-2.9m0 0v4.2m0-121.2h2.9m0 0V70m0 0h-5.7m0 0v-1.4"/><path d="M819.6 68.6h2.8m0 0v4.3M696.9 70h2.8m0 0v5.7m0 0h-2.8m0 0V70m122.7 5.7h-2.8m0 0V70"/><path d="M816.8 70h2.8m0 0v5.7m-119.9-2.8h117.1m5.6 121.2h-2.8"/><path d="M822.4 194.1h-2.8m2.8 0v5.3"/><path d="M822.4 194.1v5.3m-2.8-5.3v5.3"/><path d="M819.6 194.1v5.3m2.8-130.8h-2.8"/><path d="M822.4 68.6h-2.8m2.8 0v-5.2"/><path d="M822.4 68.6v-5.2m-2.8 5.2v-5.2"/><path d="M819.6 68.6v-5.2"/></g><path d="M394.4 239.4h5.7v2.9h-5.7v-2.9m121 0v2.9h-4.9v-2.9h4.9" class="E"/><g class="B C D F"><path d="M400.1 242.3h-5.2m5.2-2.9h-5.2"/><path d="M400.1 239.4v2.9m110.4 0h5.3"/><path d="M510.5 239.4h5.3m-5.3 0v2.9m-116.1 0h5.7m110.4 0h4.9"/><path d="M515.4 242.3v-2.9m0 0h-4.9m-110.4 0h-5.7m0 0v2.9"/></g><path d="M508.7 245v-2.7h7.1v2.7h-7.1M402 242.3v2.7h-7.1v-2.7h7.1m106.7-2.9v-2.6h7.1v2.6h-7.1M402 236.8v2.6h-7.1v-2.6h7.1" class="E G"/><g class="B C D F"><path d="M508.7 245h7.1m0 0v-2.7"/><path d="M515.8 242.3h-7.1m0 0v2.7M402 242.3h-7.1m0 0v2.7m0 0h7.1"/><path d="M402 245v-2.7m106.7-2.9h7.1m0 0v-2.6"/><path d="M515.8 236.8h-7.1m0 0v2.6M402 236.8h-7.1m0 0v2.6m0 0h7.1"/><path d="M402 239.4v-2.6m-.4 113.1l3.4-.2m6-.3h.5m0 0l5.4-.8m6-.9l5.8-1.4m5.8-1.7l5.6-1.9m5.5-2.4l3.9-1.7m0 0l1.6-.9m5.2-2.9l1.9-1.1m0 0l3.2-2.1m4.9-3.4l.1-.1m0 0l4.5-3.7m4.5-4l4.3-4.3m3.9-4.4l3.8-4.6m0 0l.1-.1m3.3-4.9l2.2-3.2m0 0l1.1-1.9m2.9-5.2l.8-1.6m0 0l1.8-3.8m2.4-5.5l1.9-5.7m1.7-5.8l1.3-5.8m1-5.9l.8-5.5"/><path d="M508.7 252.2v-.5m.3-6l.1-3.4"/></g><g class="E G"><path d="M509.1 236.6v2.8h-2.8v-2.8h2.8"/><path d="M509.1 239.4h1.4v2.9h-1.4v-2.9m-104.7-2.8v2.8h-2.8v-2.8h2.8m-4.3 2.8h1.5v2.9h-1.5v-2.9m1.5 110.5V347h5.6v2.9h-5.6"/><path d="M407.2 242.3v2.8h-5.6v-2.8h5.6"/><path d="M401.6 347V245.1h2.8V347h-2.8"/></g><path d="M401.6 347V245.1m0 0h2.8m0 0V347m0 0h-2.8" class="B C D F"/><path d="M404.4 347V245.1h2.8V347h-2.8" class="E G"/><g class="B C D F"><path d="M404.4 347V245.1m0 0h2.8m0 0V347m0 0h-2.8m106.1-107.6v2.9m0 0h-1.4"/><path d="M509.1 242.3v-5.7m0 0h-2.8m0 0v2.8"/><path d="M506.3 239.4h4.2m-106.1 0v-2.8m0 0h-2.8m0 0v5.7m0 0h-1.5"/><path d="M400.1 242.3v-2.9m0 0h4.3m-2.8 110.5V347m0 0h5.6m0 0v2.9m0 0h-5.6m5.6-107.6v2.8m0 0h-5.6"/><path d="M401.6 245.1v-2.8m0 0h5.6M404.4 347V245.1m106.1-5.7v2.9"/><path d="M510.5 239.4v2.9m0-2.9h5.3"/><path d="M510.5 239.4h5.3m-5.3 2.9h5.3"/><path d="M510.5 242.3h5.3m-115.7-2.9v2.9"/><path d="M400.1 239.4v2.9m0-2.9h-5.2"/><path d="M400.1 239.4h-5.2m5.2 2.9h-5.2"/><path d="M400.1 242.3h-5.2"/></g></g><path d="M393.5 719.3h2.2c1.3-.1 1.5-.4 2-1.6.1-.1.6-.2.9-.1a19.94 19.94 0 0 0-.2 2.7l.1 2.2c-.1 0-.3.1-.6.1-.2 0-.3 0-.4-.1-.1-.2-.3-.8-.4-1.1-.2-.5-.6-.8-1.4-.9h-2.2-1.1c-.1 0-.2.1-.3.2-.1.2-.2 1.4-.2 3.3 0 1.5 0 1.9.2 2.2.3.5 1.7.5 2.7.5 2.3 0 3.8-.4 4.7-3.1.1-.1.6 0 .7 0s.1 0 .1.2c0 1.4-.5 3.2-.8 3.8-.1.1-.1.2-.3.2h-1.1-4.4l-6.4.1c-.1 0-.1-.5 0-.7 0-.1 0-.1.1-.2 1.2-.3 1.4-.3 1.4-.8 0-.3.2-2 .2-4.2v-5.4c0-2.1-.1-2.7-.2-2.8 0-.2 0-.4-.3-.5-.2 0-.6-.1-1.4-.3-.1 0-.1 0-.1-.1l.1-.5c0-.1 0-.1.1-.1h.8l3.7.1h2l4.9-.1c.3 0 .5 0 .6.1s.2.2.1.6c-.3 1.4-.3 2.4-.3 3.2-.8 0-.8 0-.9-.2-.7-1.9-1.1-2.6-2.3-2.6h-1l-2.3.1c-.4 0-.5.5-.5.8v4.8c0 .3.1.5.2.5h1.3zm18.9-7.3l3 .1h2.2c.4 0 .4.1.6.6 0 .1 0 .2-.1.3-1.3.1-1.8.3-2.8 1.5l-3.7 4.4c-.1.1-.1.2 0 .4 2.2 3.3 4 5.6 4.6 6.2.9.9 1.3 1.2 2.4 1.3v.7c0 .1 0 .2-.2.2s-1.6-.1-3.4-.1l-3.1.1c-.2 0-.3 0-.3-.1-.1-.2-.2-.5-.2-.6s0-.1.2-.1c.1 0 .5-.1 1-.2.3-.1.5-.2 0-.9l-3.1-4.5-2.5 3.3c-.7 1-1 1.6-1 1.9 0 .4.9.4 1.4.4.1 0 .2 0 .2.1 0 .2 0 .7-.1.9l-3.9-.1h-1.3c-.1 0-.2 0-.2-.1v-.7c1.1-.1 1.5-.4 2.1-1.1l4.7-5.3c.1-.1 0-.3 0-.4-.6-1-3.4-4.8-4.3-5.9-.6-.8-.9-1-1.9-1.1-.1 0-.1 0-.1-.1 0-.3 0-.8.3-.8h3.2l2.8-.1c.2 0 .2 0 .3.1l.1.6c.1.2 0 .3-.3.3h-.8c-.3 0-.4.2-.1.7.4.6.7 1.2 3 4.4.8-.9 2.1-2.6 2.6-3.3.4-.5.6-1 .6-1.2 0-.3-.3-.3-1.1-.4-.3 0-.3 0-.3-.2l-.5-1.2z"/><use xlink:href="#B"/><path d="M429.5 728.1c-.1 0-.2 0-.3-.1 0 0-.1-.3-.1-.9 0-1.2-.2-2.4-.4-3.9 0-.2 0-.2.1-.2h.5c.1 0 .3 0 .3.2.1.4.3.8.7 1.4.9 1.2 2.6 2.4 3.9 2.4 1.7 0 3-1.2 3-2.9 0-.7-.5-1.6-1.2-2-.4-.2-.9-.6-2.3-1.2-1.7-.7-2.8-1.4-3.7-2.4-.5-.6-.9-1.5-.9-2.7 0-1.6 1-2.7 2.1-3.3.6-.3 2-.8 3.7-.8l2.1.1c.3 0 .5 0 .8.1.2 0 .4-.1.6-.5h.8c-.1 1.2 0 2.5.2 3.9 0 .2 0 .3-.1.4-.2.1-.4.3-.6.4 0 0-.2 0-.2-.2-.4-1.1-.7-1.8-1.5-2.4-.6-.5-1.7-.9-2.7-.9-1.2 0-2.3 1.2-2.3 2.3 0 .7.2 1.3.7 1.7.6.5 1.1.9 2.4 1.5 1.6.7 2.9 1.3 3.6 2 1 1 1.4 1.8 1.4 3.1 0 1.8-1 3-2.3 3.7-1.2.7-3.3.9-4.2.9s-2.1-.1-2.9-.4h-.5c-.1.1-.3.2-.4.4 0 .3-.2.3-.3.3h0zm16-1.3c.4 0 1.1-.1 1.4-.2.5-.1.9-.3 1-.9 0-.2.3-2 .3-5.1v-2.5l-.1-5H447c-2.1 0-3.6.4-4 .6-.2.1-.4.6-.8 1.8 0 .1-.2 0-.3 0-.2-.1-.5-.3-.6-.5.3-.7.8-1.9 1.4-4h.5c.2.1.2.1.2.2.1.6.2.7.4.8.2 0 .5.1 1.1.1h4.8l5.4-.1c.6 0 .9 0 1.1-.1.2 0 .5-.4.6-.7.1-.1.1-.1.2-.1.2 0 .3.1.6.2.1 0 .1.1 0 .3-.5 1.3-.5 1.9-.6 3.7 0 .1 0 .2-.3.2-.2 0-.4 0-.5-.1-.1 0-.2-.1-.2-.2v-1.3c0-.2-.1-.4-.4-.5-.2-.1-1.6-.2-3.2-.2h-.9a.47.47 0 0 0-.5.5v4.7 2.5l.2 4.7c.1.4.3.8.6.9s1.4.3 2 .4c.2 0 .2 0 .1.2l-.1.5c0 .1 0 .1-.4.1-.8 0-2.4-.1-3.6-.1l-4.1.1c-.2 0-.3-.1-.3-.2l.1-.7z"/><use xlink:href="#B" x="39.4"/><path d="M467.9 712l4 .1c.2 0 .4 0 .5.1s.2.2.2.3c0 .4 1.2 1.7 1.4 2 1.2 1.2 3.9 4 8.4 8.2.1-.9.1-1.7.1-3.4 0-2.5 0-4-.2-4.9 0-.5-.1-1.1-.6-1.2-.3-.1-1.2-.1-1.4-.2-.1-.1-.2-.1-.2-.2v-.6h2.7c.9 0 2.1-.1 2.6-.1.1 0 .3 0 .3.1l.1.6c-.8.3-1.1.3-1.4.5-.5.3-.7 1.1-.8 4-.1 2.4-.1 3.9-.1 6 0 2.2.1 3.6.1 3.9 0 .4-.1.6-.8 1-.1.1-.2 0-.4-.2-1.3-1.9-2.9-3.8-5.5-6.4l-5.6-5.6c0 .9-.1 2.3-.1 3.7 0 1.2 0 5.1.2 6.1.2.7 1.5.9 2 1l.2.7c0 .1-.1.2-.2.2-.8 0-2.1-.1-3-.1-.8 0-1.6 0-2 .1-.1-.3-.2-.6-.3-.8 1.5-.3 1.6-.5 1.7-1.3.1-.6.3-2.7.3-5v-2.7c0-3.2-.1-3.7-.4-4.1-.4-.6-.8-.7-1.6-.9-.2-.1-.3-.1-.3-.3v-.6zm19.2 7.7c0-2.5.9-4.3 2.3-5.6 1.2-1.1 2.3-1.6 4-2 1.4-.4 2.8-.4 3.6-.4.9 0 2.5.2 3.2.4.2 0 .3.1.4 0l.2-.4c0-.1.1-.1.2-.1l.5.1c.1 0 .1 0 .1.2 0 1.4.3 3.1.4 3.6v.6c-.1 0-.1.1-.5.1h-.1c-.2 0-.2-.1-.4-.3-1-1.8-2.8-3.2-5.2-3.2-1.2 0-2.2.4-3.1 1.3-1.1 1.1-2.3 3-2.3 5.9 0 1.6.5 3.7 2 5.3 1.5 1.5 3.1 1.9 4.1 1.9.5 0 1.2-.2 1.6-.6.5-.3.7-1.3.7-3.1 0-2 0-2.5-.9-2.7a7.01 7.01 0 0 1-1.4-.3c-.2 0-.3-.1-.4-.2s-.1-.2-.1-.5c0-.1 0-.2.2-.2l4.4.1 2.4-.1c.1.2 0 .7 0 1-.2 0-.7.1-1 .2-.1.3-.1 2.1-.2 5.9 0 .6-.1.7-.4 1-.2.2-.6.2-.6.2-.5 0-.9 0-1.9.1-.8.1-1.6.1-2.5.1-3.1 0-5.6-.8-7.3-2.4-1-1.4-2-3.3-2-5.9h0z"/><defs ><path id="B" d="M427.3 712.9c-2 .3-2.2.5-2.3.9s-.2 1.3-.2 3.8v3.8l.2 4.6c.1.4.2.6.5.6.2 0 .7.1 1.2.2.1 0 .2 0 .2.1s-.1.6-.1.8c-1.8 0-2.8-.1-3.8-.1l-3.2.1c-.2 0-.3-.1-.3-.2 0-.2-.1-.5-.1-.7 1.3-.1 1.8-.2 2.1-.9.1-.4.3-1.2.3-4.3v-4.8c0-3.2 0-3.6-.9-3.7-.3 0-.7-.1-1.1-.1-.1 0-.2 0-.2-.2 0-.1 0-.2.1-.5.1-.1.1-.2.2-.2h.7 3.1 2.9c.3 0 .3 0 .4.1l.3.7z"/></defs></svg>